SplineFontDB: 3.0
FontName: OpakSans
FullName: Opak Sans
FamilyName: Opak Sans
Weight: Book
Copyright: Copyright (c) 2014, vernon adams
UComments: "2014-3-18: Created with FontForge (http://fontforge.org)" 
Version: 001.000
ItalicAngle: 0
UnderlinePosition: 0
UnderlineWidth: 0
Ascent: 800
Descent: 200
sfntRevision: 0x00010000
UFOAscent: 800
UFODescent: -200
LayerCount: 2
Layer: 0 0 "Back"  1
Layer: 1 0 "Fore"  0
FSType: 0
OS2Version: 3
OS2_WeightWidthSlopeOnly: 0
OS2_UseTypoMetrics: 1
CreationTime: 1395277072
ModificationTime: 1395277773
PfmFamily: 17
TTFWeight: 400
TTFWidth: 5
LineGap: 0
VLineGap: 0
OS2TypoAscent: 1116
OS2TypoAOffset: 0
OS2TypoDescent: -259
OS2TypoDOffset: 0
OS2TypoLinegap: 0
OS2WinAscent: 1116
OS2WinAOffset: 0
OS2WinDescent: 259
OS2WinDOffset: 0
HheadAscent: 1116
HheadAOffset: 0
HheadDescent: -259
HheadDOffset: 0
OS2Vendor: 'NeWT'
MarkAttachClasses: 1
DEI: 91125
LangName: 1033 "" "" "" "" "" "Version 001.000" 
PickledData: "(dp1
S'public.glyphOrder'
p2
(S'A'
S'Aacute'
p3
S'Abreve'
p4
S'Acaron'
p5
S'Acircumflex'
p6
S'Adblgrave'
p7
S'Adieresis'
p8
S'Adotaccent'
p9
S'Agrave'
p10
S'Ainvertedbreve'
p11
S'Amacron'
p12
S'Aogonek'
p13
S'Aring'
p14
S'Aringacute'
p15
S'Atilde'
p16
S'AE'
p17
S'AEacute'
p18
S'AEmacron'
p19
S'B'
S'Bdotaccent'
p20
S'C'
S'Cacute'
p21
S'Ccaron'
p22
S'Ccedilla'
p23
S'Ccircumflex'
p24
S'Cdotaccent'
p25
S'D'
S'DZ'
p26
S'DZcaron'
p27
S'Eth'
p28
S'Dcaron'
p29
S'Dcroat'
p30
S'Ddotaccent'
p31
S'Dz'
p32
S'Dzcaron'
p33
S'E'
S'Eacute'
p34
S'Ebreve'
p35
S'Ecaron'
p36
S'uni0228'
p37
S'Ecircumflex'
p38
S'Edblgrave'
p39
S'Edieresis'
p40
S'Edotaccent'
p41
S'Egrave'
p42
S'Einvertedbreve'
p43
S'Emacron'
p44
S'Eogonek'
p45
S'Etilde'
p46
S'F'
S'Fdotaccent'
p47
S'G'
S'Gacute'
p48
S'Gbreve'
p49
S'Gcaron'
p50
S'Gcircumflex'
p51
S'Gcommaaccent'
p52
S'Gdotaccent'
p53
S'H'
S'Hbar'
p54
S'uni021E'
p55
S'Hcircumflex'
p56
S'I'
S'IJ'
p57
S'Iacute'
p58
S'Ibreve'
p59
S'Icaron'
p60
S'Icircumflex'
p61
S'Idblgrave'
p62
S'Idieresis'
p63
S'Idotaccent'
p64
S'Igrave'

StartChar: A
Encoding: 65 65 0
Width: 636
VWidth: 0
GlyphClass: 2
Flags: W
AnchorPoint: "ogonek" 566 0 basechar 0
AnchorPoint: "top" 321 690 basechar 0
LayerCount: 2
Fore
SplineSet
19 0 m 257
 114 0 l 257
 175 179 l 257
 460 179 l 257
 521 0 l 257
 618 0 l 257
 371 690 l 257
 268 690 l 257
 19 0 l 257
203 260 m 257
 316 585 l 257
 319 585 l 257
 431 260 l 257
 203 260 l 257
EndSplineSet
EndChar

StartChar: AE
Encoding: 198 198 1
Width: 887
VWidth: 0
GlyphClass: 2
Flags: W
AnchorPoint: "top" 580 690 basechar 0
LayerCount: 2
Fore
SplineSet
9 0 m 257
 112 0 l 257
 194 181 l 257
 436 181 l 257
 439 0 l 257
 845 0 l 257
 845 79 l 257
 530 79 l 257
 525 321 l 257
 794 321 l 257
 794 400 l 257
 524 400 l 257
 520 611 l 257
 832 611 l 257
 832 690 l 257
 337 690 l 257
 9 0 l 257
232 265 m 257
 386 599 l 257
 428 599 l 257
 434 265 l 257
 232 265 l 257
EndSplineSet
EndChar

StartChar: B
Encoding: 66 66 18
Width: 628
VWidth: 0
GlyphClass: 2
Flags: W
AnchorPoint: "top" 311 690 basechar 0
LayerCount: 2
Fore
SplineSet
89 0 m 257
 326 0 l 258
 480 0 573 62 573 199 c 256
 573 302 516 359 430 373 c 257
 489 392 537 438 537 521 c 256
 537 642 457 690 302 690 c 258
 89 690 l 257
 89 0 l 257
181 79 m 257
 181 323 l 257
 322 323 l 258
 447 323 479 285 479 201 c 256
 479 114 439 79 303 79 c 258
 181 79 l 257
181 401 m 257
 181 612 l 257
 298 612 l 258
 398 612 443 584 443 510 c 256
 443 437 396 401 303 401 c 258
 181 401 l 257
EndSplineSet
EndChar

StartChar: C
Encoding: 67 67 20
Width: 640
VWidth: 0
GlyphClass: 2
Flags: W
AnchorPoint: "bot" 348 0 basechar 0
AnchorPoint: "top" 351 690 basechar 0
LayerCount: 2
Fore
SplineSet
348 -13 m 256
 480 -13 560 44 598 154 c 256
 599 157 600 159 601 162 c 257
 519 191 l 257
 492 105 434 66 346 66 c 256
 217 66 157 164 157 345 c 256
 157 527 218 624 345 624 c 256
 436 624 487 586 513 502 c 257
 595 532 l 257
 594 535 593 537 592 540 c 256
 560 650 473 703 345 703 c 256
 161 703 61 581 61 345 c 256
 61 108 162 -13 348 -13 c 256
EndSplineSet
EndChar

StartChar: D
Encoding: 68 68 26
Width: 641
VWidth: 0
GlyphClass: 2
Flags: W
AnchorPoint: "mid" 135 351 basechar 0
AnchorPoint: "top" 321 690 basechar 0
LayerCount: 2
Fore
SplineSet
177 79 m 257
 177 611 l 257
 271 611 l 258
 431 611 494 534 494 365 c 258
 494 322 l 257
 493 153 429 79 271 79 c 258
 177 79 l 257
85 0 m 257
 276 0 l 258
 494 0 589 103 590 320 c 257
 590 364 l 258
 590 583 491 690 274 690 c 258
 85 690 l 257
 85 0 l 257
EndSplineSet
EndChar

StartChar: uni0394
Encoding: 916 916 32
Width: 615
VWidth: 0
Flags: W
LayerCount: 2
Fore
SplineSet
25 0 m 257
 590 0 l 257
 590 43 l 257
 366 676 l 257
 252 676 l 257
 25 43 l 257
 25 0 l 257
130 78 m 257
 278 510 l 257
 303 595 l 257
 305 595 l 257
 331 511 l 257
 479 78 l 257
 130 78 l 257
EndSplineSet
EndChar

StartChar: E
Encoding: 69 69 35
Width: 571
VWidth: 0
GlyphClass: 2
Flags: W
AnchorPoint: "bot" 325 0 basechar 0
AnchorPoint: "ogonek" 435 0 basechar 0
AnchorPoint: "top" 331 690 basechar 0
LayerCount: 2
Fore
SplineSet
89 0 m 257
 525 0 l 257
 525 79 l 257
 181 79 l 257
 181 321 l 257
 477 321 l 257
 477 400 l 257
 181 400 l 257
 181 611 l 257
 523 611 l 257
 523 690 l 257
 89 690 l 257
 89 0 l 257
EndSplineSet
EndChar

StartChar: Eng
Encoding: 330 330 46
Width: 691
VWidth: 0
GlyphClass: 2
Flags: W
LayerCount: 2
Fore
SplineSet
513 690 m 257
 513 162 l 257
 511 162 l 257
 206 690 l 257
 89 690 l 257
 89 0 l 257
 179 0 l 257
 179 568 l 257
 181 568 l 257
 516 0 l 257
 516 -86 506 -123 450 -123 c 256
 425 -123 400 -118 376 -109 c 257
 355 -178 l 257
 384 -188 414 -193 447 -193 c 256
 557 -193 603 -143 603 -22 c 258
 603 690 l 257
 513 690 l 257
EndSplineSet
EndChar

StartChar: Euro
Encoding: 8364 8364 50
Width: 617
VWidth: 0
GlyphClass: 2
Flags: W
LayerCount: 2
Fore
SplineSet
349 -14 m 256
 458 -14 526 24 583 128 c 257
 511 173 l 257
 468 92 420 64 346 64 c 256
 238 64 181 125 163 247 c 257
 399 247 l 257
 417 305 l 257
 158 305 l 257
 158 373 l 257
 434 373 l 257
 452 431 l 257
 163 431 l 257
 181 544 236 612 344 612 c 256
 405 612 458 596 503 516 c 257
 577 563 l 257
 530 646 464 690 344 690 c 256
 179 690 91 603 68 431 c 257
 33 431 l 257
 15 373 l 257
 63 373 l 257
 63 305 l 257
 34 305 l 257
 15 247 l 257
 68 247 l 257
 90 73 184 -14 349 -14 c 256
EndSplineSet
EndChar

StartChar: F
Encoding: 70 70 51
Width: 557
VWidth: 0
GlyphClass: 2
Flags: W
AnchorPoint: "top" 311 690 basechar 0
LayerCount: 2
Fore
SplineSet
89 0 m 257
 181 0 l 257
 181 315 l 257
 474 315 l 257
 474 394 l 257
 181 394 l 257
 181 611 l 257
 522 611 l 257
 522 690 l 257
 89 690 l 257
 89 0 l 257
EndSplineSet
EndChar

StartChar: G
Encoding: 71 71 53
Width: 680
VWidth: 0
GlyphClass: 2
Flags: W
AnchorPoint: "bot" 358 0 basechar 0
AnchorPoint: "top" 367 690 basechar 0
LayerCount: 2
Fore
SplineSet
358 -13 m 256
 468 -13 542 24 600 69 c 257
 600 348 l 257
 346 348 l 257
 346 269 l 257
 507 269 l 257
 507 108 l 257
 465 81 417 66 358 66 c 256
 230 66 157 153 157 315 c 258
 157 379 l 257
 158 534 222 624 348 624 c 256
 442 624 496 581 518 510 c 257
 599 539 l 257
 598 541 597 545 596 547 c 256
 564 653 471 703 348 703 c 256
 167 703 62 588 61 378 c 257
 61 315 l 258
 61 105 168 -13 358 -13 c 256
EndSplineSet
EndChar

StartChar: H
Encoding: 72 72 60
Width: 684
VWidth: 0
GlyphClass: 2
Flags: W
AnchorPoint: "top" 355 690 basechar 0
LayerCount: 2
Fore
SplineSet
89 0 m 257
 181 0 l 257
 181 311 l 257
 504 311 l 257
 504 0 l 257
 597 0 l 257
 597 690 l 257
 504 690 l 257
 504 391 l 257
 181 391 l 257
 181 690 l 257
 89 690 l 257
 89 0 l 257
EndSplineSet
EndChar

StartChar: Hbar
Encoding: 294 294 61
Width: 684
VWidth: 0
GlyphClass: 2
Flags: W
LayerCount: 2
Fore
SplineSet
659 499 m 257
 659 569 l 257
 23 569 l 257
 23 499 l 257
 659 499 l 257
EndSplineSet
Refer: 60 72 N 1 0 0 1 0 0 2
EndChar

StartChar: I
Encoding: 73 73 63
Width: 416
VWidth: 0
GlyphClass: 2
Flags: W
AnchorPoint: "ogonek" 211 0 basechar 0
AnchorPoint: "top" 213 690 basechar 0
LayerCount: 2
Fore
SplineSet
254 69 m 257
 254 621 l 257
 352 621 l 257
 352 690 l 257
 64 690 l 257
 64 621 l 257
 162 621 l 257
 162 69 l 257
 64 69 l 257
 64 0 l 257
 352 0 l 257
 352 69 l 257
 254 69 l 257
EndSplineSet
EndChar

StartChar: J
Encoding: 74 74 77
Width: 480
VWidth: 0
GlyphClass: 2
Flags: W
AnchorPoint: "top" 331 690 basechar 0
LayerCount: 2
Fore
SplineSet
79 20 m 257
 109 -2 154 -11 197 -13 c 256
 321 -18 393 59 393 189 c 258
 393 690 l 257
 301 690 l 257
 301 212 l 258
 301 103 266 63 193 66 c 256
 158 67 120 82 105 92 c 257
 79 20 l 257
EndSplineSet
EndChar

StartChar: K
Encoding: 75 75 79
Width: 627
VWidth: 0
GlyphClass: 2
Flags: W
AnchorPoint: "bot" 331 0 basechar 0
AnchorPoint: "top" 321 690 basechar 0
LayerCount: 2
Fore
SplineSet
89 0 m 257
 181 0 l 257
 181 231 l 257
 253 308 l 257
 496 0 l 257
 610 0 l 257
 319 366 l 257
 594 690 l 257
 484 690 l 257
 181 333 l 257
 181 690 l 257
 89 690 l 257
 89 0 l 257
EndSplineSet
EndChar

StartChar: L
Encoding: 76 76 82
Width: 520
VWidth: 0
GlyphClass: 2
Flags: W
AnchorPoint: "mid" 138 368 basechar 0
AnchorPoint: "bot" 297 0 basechar 0
AnchorPoint: "top" 151 690 basechar 0
LayerCount: 2
Fore
SplineSet
89 0 m 257
 499 0 l 257
 499 79 l 257
 181 79 l 257
 181 690 l 257
 89 690 l 257
 89 0 l 257
EndSplineSet
EndChar

StartChar: Lslash
Encoding: 321 321 89
Width: 520
VWidth: 0
GlyphClass: 2
Flags: W
LayerCount: 2
Fore
SplineSet
8 262 m 257
 298 442 l 257
 298 519 l 257
 8 339 l 257
 8 262 l 257
EndSplineSet
Refer: 82 76 N 1 0 0 1 0 0 2
EndChar

StartChar: M
Encoding: 77 77 90
Width: 818
VWidth: 0
GlyphClass: 2
Flags: W
AnchorPoint: "top" 418 690 basechar 0
LayerCount: 2
Fore
SplineSet
89 0 m 257
 179 0 l 257
 179 281 l 257
 175 564 l 257
 176 564 l 257
 379 145 l 257
 438 145 l 257
 642 565 l 257
 644 564 l 257
 640 281 l 257
 640 0 l 257
 730 0 l 257
 730 690 l 257
 610 690 l 257
 411 272 l 257
 409 272 l 257
 211 690 l 257
 89 690 l 257
 89 0 l 257
EndSplineSet
EndChar

StartChar: N
Encoding: 78 78 92
Width: 691
VWidth: 0
GlyphClass: 2
Flags: W
AnchorPoint: "bot" 363 0 basechar 0
AnchorPoint: "top" 361 690 basechar 0
LayerCount: 2
Fore
SplineSet
89 0 m 257
 179 0 l 257
 179 568 l 257
 181 568 l 257
 501 0 l 257
 603 0 l 257
 603 690 l 257
 513 690 l 257
 513 152 l 257
 511 152 l 257
 206 690 l 257
 89 690 l 257
 89 0 l 257
EndSplineSet
EndChar

StartChar: O
Encoding: 79 79 99
Width: 672
VWidth: 0
GlyphClass: 2
Flags: W
AnchorPoint: "ogonek" 365 0 basechar 0
AnchorPoint: "top" 334 690 basechar 0
LayerCount: 2
Fore
SplineSet
334 67 m 256
 211 67 152 158 152 320 c 258
 152 375 l 257
 153 533 211 623 334 623 c 256
 458 623 519 534 520 375 c 257
 520 320 l 258
 520 156 459 67 334 67 c 256
334 -13 m 256
 513 -13 615 105 615 320 c 258
 615 376 l 257
 614 587 513 703 334 703 c 256
 156 703 58 584 57 376 c 257
 57 320 l 258
 57 107 156 -13 334 -13 c 256
EndSplineSet
EndChar

StartChar: OE
Encoding: 338 338 100
Width: 1002
VWidth: 0
GlyphClass: 2
Flags: W
LayerCount: 2
Fore
SplineSet
956 0 m 257
 956 79 l 257
 612 79 l 257
 612 321 l 257
 908 321 l 257
 908 400 l 257
 612 400 l 257
 612 611 l 257
 954 611 l 257
 954 690 l 257
 520 690 l 257
 520 626 l 257
 480 676 420 703 334 703 c 256
 156 703 58 584 57 376 c 258
 57 320 l 258
 57 107 156 -13 334 -13 c 256
 419 -13 480 14 520 65 c 257
 520 0 l 257
 956 0 l 257
152 320 m 258
 152 375 l 258
 153 533 211 623 334 623 c 256
 458 623 519 534 520 375 c 258
 520 320 l 258
 520 156 459 67 334 67 c 256
 211 67 152 158 152 320 c 258
EndSplineSet
EndChar

StartChar: uni03A9
Encoding: 937 937 111
Width: 666
VWidth: 0
Flags: W
LayerCount: 2
Fore
SplineSet
73 0 m 257
 295 0 l 257
 295 157 l 257
 186 181 153 235 153 389 c 256
 153 540 211 610 328 610 c 256
 456 610 513 545 513 389 c 256
 513 272 500 171 371 157 c 257
 371 0 l 257
 593 0 l 257
 593 82 l 257
 451 82 l 257
 451 107 l 257
 556 134 608 223 608 396 c 256
 608 591 520 690 328 690 c 256
 175 690 58 593 58 396 c 256
 58 224 108 136 215 107 c 257
 215 82 l 257
 73 82 l 257
 73 0 l 257
EndSplineSet
EndChar

StartChar: P
Encoding: 80 80 116
Width: 602
VWidth: 0
GlyphClass: 2
Flags: W
AnchorPoint: "top" 321 690 basechar 0
LayerCount: 2
Fore
SplineSet
89 0 m 257
 181 0 l 257
 181 252 l 257
 315 252 l 258
 475 252 557 322 557 475 c 256
 557 619 476 690 318 690 c 258
 89 690 l 257
 89 0 l 257
181 331 m 257
 181 611 l 257
 311 611 l 258
 415 611 462 565 462 474 c 256
 462 371 425 331 304 331 c 258
 181 331 l 257
EndSplineSet
EndChar

StartChar: Q
Encoding: 81 81 118
Width: 672
VWidth: 0
GlyphClass: 2
Flags: W
LayerCount: 2
Fore
SplineSet
452 -140 m 257
 539 -140 l 257
 388 190 l 257
 310 174 l 257
 452 -140 l 257
EndSplineSet
Refer: 99 79 N 1 0 0 1 0 0 2
EndChar

StartChar: R
Encoding: 82 82 119
Width: 627
VWidth: 0
GlyphClass: 2
Flags: W
AnchorPoint: "bot" 325 0 basechar 0
AnchorPoint: "top" 321 690 basechar 0
LayerCount: 2
Fore
SplineSet
89 0 m 257
 181 0 l 257
 181 289 l 257
 316 289 l 258
 455 289 555 348 555 495 c 256
 555 629 477 690 318 690 c 258
 89 690 l 257
 89 0 l 257
181 367 m 257
 181 612 l 257
 317 612 l 258
 414 612 460 579 460 491 c 256
 460 400 420 367 310 367 c 258
 181 367 l 257
465 -0 m 257
 566 0 l 257
 415 330 l 257
 323 314 l 257
 465 -0 l 257
EndSplineSet
EndChar

StartChar: S
Encoding: 83 83 125
Width: 609
VWidth: 0
GlyphClass: 2
Flags: W
AnchorPoint: "bot" 325 0 basechar 0
AnchorPoint: "top" 310 690 basechar 0
LayerCount: 2
Fore
SplineSet
306 -13 m 256
 455 -13 555 56 555 183 c 256
 555 247 531 292 491 324 c 256
 450 356 393 376 326 393 c 256
 270 407 227 421 200 439 c 256
 173 457 158 480 158 513 c 256
 158 583 214 624 301 624 c 256
 386 624 441 584 462 513 c 257
 541 544 l 257
 538 553 l 258
 512 636 433 703 301 703 c 256
 151 703 64 624 64 508 c 256
 64 447 88 405 130 375 c 256
 172 345 231 325 301 308 c 256
 350 296 391 282 418 262 c 256
 445 242 461 216 461 179 c 256
 461 105 396 66 305 66 c 256
 219 66 152 104 129 182 c 257
 48 153 l 257
 49 150 51 147 52 144 c 256
 83 44 180 -13 306 -13 c 256
EndSplineSet
EndChar

StartChar: Sigma
Encoding: 931 931 133
Width: 514
VWidth: 0
GlyphClass: 2
Flags: W
LayerCount: 2
Fore
SplineSet
36 0 m 257
 496 0 l 257
 496 81 l 257
 143 81 l 257
 387 335 l 257
 387 354 l 257
 152 595 l 257
 481 595 l 257
 481 676 l 257
 36 676 l 257
 36 597 l 257
 286 344 l 257
 36 83 l 257
 36 0 l 257
EndSplineSet
EndChar

StartChar: T
Encoding: 84 84 134
Width: 581
VWidth: 0
GlyphClass: 2
Flags: W
AnchorPoint: "mid" 295 357 basechar 0
AnchorPoint: "bot" 293 0 basechar 0
AnchorPoint: "top" 292 690 basechar 0
LayerCount: 2
Fore
SplineSet
244 0 m 257
 337 0 l 257
 337 611 l 257
 563 611 l 257
 563 690 l 257
 19 690 l 257
 19 611 l 257
 244 611 l 257
 244 0 l 257
EndSplineSet
EndChar

StartChar: Thorn
Encoding: 222 222 138
Width: 602
VWidth: 0
GlyphClass: 2
Flags: W
AnchorPoint: "top" 321 690 basechar 0
LayerCount: 2
Fore
SplineSet
89 0 m 257
 181 0 l 257
 181 182 l 257
 304 182 l 258
 464 182 557 252 557 395 c 256
 557 539 469 590 311 590 c 258
 181 590 l 257
 181 690 l 257
 89 690 l 257
 89 0 l 257
181 261 m 257
 181 511 l 257
 304 511 l 258
 408 511 462 485 462 394 c 256
 462 301 414 261 293 261 c 258
 181 261 l 257
EndSplineSet
EndChar

StartChar: U
Encoding: 85 85 139
Width: 682
VWidth: 0
GlyphClass: 2
Flags: W
AnchorPoint: "ogonek" 353 0 basechar 0
AnchorPoint: "top" 354 690 basechar 0
LayerCount: 2
Fore
SplineSet
341 -13 m 256
 521 -13 602 66 602 261 c 258
 602 690 l 257
 509 690 l 257
 509 266 l 258
 509 111 457 65 340 65 c 256
 225 65 175 119 175 267 c 258
 175 690 l 257
 82 690 l 257
 82 261 l 258
 82 68 164 -13 341 -13 c 256
EndSplineSet
EndChar

StartChar: V
Encoding: 86 86 153
Width: 612
VWidth: 0
GlyphClass: 2
Flags: W
LayerCount: 2
Fore
SplineSet
252 0 m 257
 358 0 l 257
 593 690 l 257
 496 690 l 257
 334 190 l 257
 307 100 l 257
 306 100 l 257
 278 194 l 257
 118 690 l 257
 19 690 l 257
 252 0 l 257
EndSplineSet
EndChar

StartChar: W
Encoding: 87 87 154
Width: 868
VWidth: 0
GlyphClass: 2
Flags: W
AnchorPoint: "top" 434 690 basechar 0
LayerCount: 2
Fore
SplineSet
195 0 m 257
 293 0 l 257
 414 469 l 257
 431 548 l 257
 433 548 l 257
 451 468 l 257
 570 0 l 257
 669 0 l 257
 836 690 l 257
 744 690 l 257
 639 232 l 257
 620 138 l 257
 618 138 l 257
 597 232 l 257
 480 690 l 257
 385 690 l 257
 268 228 l 257
 248 141 l 257
 247 141 l 257
 229 229 l 257
 123 690 l 257
 30 690 l 257
 195 0 l 257
EndSplineSet
EndChar

StartChar: X
Encoding: 88 88 159
Width: 606
VWidth: 0
GlyphClass: 2
Flags: W
LayerCount: 2
Fore
SplineSet
28 0 m 257
 136 0 l 257
 304 276 l 257
 471 0 l 257
 580 0 l 257
 359 349 l 257
 579 690 l 257
 471 690 l 257
 306 419 l 257
 144 690 l 257
 34 690 l 257
 252 347 l 257
 28 0 l 257
EndSplineSet
EndChar

StartChar: Y
Encoding: 89 89 160
Width: 580
VWidth: 0
GlyphClass: 2
Flags: W
AnchorPoint: "top" 301 690 basechar 0
LayerCount: 2
Fore
SplineSet
243 0 m 257
 336 0 l 257
 336 257 l 257
 565 690 l 257
 462 690 l 257
 291 348 l 257
 121 690 l 257
 16 690 l 257
 243 257 l 257
 243 0 l 257
EndSplineSet
EndChar

StartChar: Z
Encoding: 90 90 167
Width: 579
VWidth: 0
GlyphClass: 2
Flags: W
AnchorPoint: "top" 311 690 basechar 0
LayerCount: 2
Fore
SplineSet
46 0 m 257
 531 0 l 257
 531 79 l 257
 151 79 l 257
 520 614 l 257
 520 690 l 257
 57 690 l 257
 57 611 l 257
 412 611 l 257
 46 80 l 257
 46 0 l 257
EndSplineSet
EndChar

StartChar: a
Encoding: 97 97 171
Width: 542
VWidth: 0
GlyphClass: 2
Flags: W
AnchorPoint: "ogonek" 425 0 basechar 0
AnchorPoint: "top" 270 519 basechar 0
LayerCount: 2
Fore
SplineSet
212 -13 m 256
 281 -13 334 25 378 70 c 257
 378 58 380 11 382 0 c 257
 472 0 l 257
 468 13 467 83 467 99 c 258
 467 353 l 258
 467 478 399 532 264 532 c 256
 162 532 91 486 71 425 c 258
 68 416 l 257
 146 391 l 257
 156 428 197 458 260 458 c 256
 333 458 378 429 378 356 c 258
 378 320 l 257
 261 314 l 257
 121 303 53 254 53 146 c 256
 53 49 111 -13 212 -13 c 256
233 64 m 256
 175 64 143 89 143 146 c 256
 143 209 193 243 286 249 c 258
 378 254 l 257
 378 144 l 257
 345 105 290 64 233 64 c 256
EndSplineSet
EndChar

StartChar: acute
Encoding: 180 180 176
Width: 600
VWidth: 0
GlyphClass: 2
Flags: W
AnchorPoint: "top" 262 519 mark 0
LayerCount: 2
Fore
SplineSet
235 590 m 257
 304 590 l 257
 437 766 l 257
 322 766 l 257
 235 590 l 257
EndSplineSet
EndChar

StartChar: acute.cap
Encoding: 65536 -1 177
Width: 600
VWidth: 0
GlyphClass: 2
Flags: W
AnchorPoint: "top" 263 690 mark 0
LayerCount: 2
Fore
SplineSet
235 754 m 257
 304 754 l 257
 437 930 l 257
 322 930 l 257
 235 754 l 257
EndSplineSet
EndChar

StartChar: acutecomb
Encoding: 769 769 178
Width: 600
VWidth: 0
GlyphClass: 2
Flags: W
LayerCount: 2
Fore
SplineSet
-30 590 m 257
 39 590 l 257
 172 766 l 257
 57 766 l 257
 -30 590 l 257
EndSplineSet
EndChar

StartChar: ae
Encoding: 230 230 182
Width: 831
VWidth: 0
GlyphClass: 2
Flags: W
AnchorPoint: "top" 428 519 basechar 0
LayerCount: 2
Fore
SplineSet
786 247 m 257
 786 297 l 258
 786 449 717 532 580 532 c 256
 507 532 450 498 424 451 c 257
 403 497 347 532 252 532 c 256
 150 532 79 486 59 425 c 258
 56 416 l 257
 134 391 l 257
 144 428 185 458 248 458 c 256
 325 458 370 429 370 356 c 258
 370 314 l 257
 249 314 l 258
 109 314 41 254 41 146 c 256
 41 49 99 -13 200 -13 c 256
 279 -13 343 17 412 72 c 257
 447 17 506 -13 589 -13 c 256
 680 -13 735 17 775 68 c 257
 719 118 l 257
 686 79 647 61 593 61 c 256
 494 61 454 125 453 247 c 257
 786 247 l 257
455 314 m 257
 455 318 l 257
 467 405 501 459 578 459 c 256
 660 459 697 405 698 314 c 257
 455 314 l 257
131 146 m 256
 131 209 181 250 274 247 c 258
 369 247 l 257
 369 204 374 167 385 132 c 257
 345 98 270 64 221 64 c 256
 163 64 131 89 131 146 c 256
EndSplineSet
EndChar

StartChar: ampersand
Encoding: 38 38 188
Width: 695
VWidth: 0
GlyphClass: 2
Flags: W
LayerCount: 2
Fore
SplineSet
305 -14 m 256
 376 -14 435 3 501 54 c 257
 547 0 l 257
 656 0 l 257
 560 113 l 257
 598 155 627 213 648 288 c 257
 572 307 l 257
 559 254 538 210 508 175 c 257
 346 366 l 257
 448 428 493 487 493 559 c 256
 493 635 432 690 326 690 c 256
 205 690 145 639 145 536 c 256
 145 484 180 432 224 381 c 257
 177 353 144 331 124 312 c 256
 84 274 67 234 67 176 c 256
 67 61 157 -14 305 -14 c 256
307 59 m 256
 219 59 158 106 158 174 c 256
 158 217 169 241 200 269 c 256
 215 283 240 301 274 323 c 257
 453 111 l 257
 428 90 383 59 307 59 c 256
297 424 m 257
 262 466 231 505 231 540 c 256
 231 595 262 625 323 625 c 256
 379 625 407 597 407 558 c 256
 407 511 366 463 297 424 c 257
EndSplineSet
EndChar

StartChar: approxequal
Encoding: 8776 8776 190
Width: 697
VWidth: 0
GlyphClass: 2
Flags: W
LayerCount: 2
Fore
SplineSet
474 87 m 256
 515 87 566 106 617 149 c 257
 617 227 l 257
 574 191 525 157 472 157 c 256
 436 157 396 176 354 196 c 256
 312 215 269 234 229 234 c 256
 197 234 145 224 80 172 c 257
 80 94 l 257
 136 141 185 164 227 164 c 256
 258 164 300 145 344 125 c 256
 388 106 434 87 474 87 c 256
473 307 m 256
 534 307 575 334 616 369 c 257
 616 447 l 257
 550 394 514 377 471 377 c 256
 435 377 395 396 353 416 c 256
 311 435 268 454 228 454 c 256
 196 454 144 444 79 392 c 257
 79 314 l 257
 132 360 181 384 226 384 c 256
 257 384 299 365 343 346 c 256
 387 326 433 307 473 307 c 256
EndSplineSet
EndChar

StartChar: asciicircum
Encoding: 94 94 193
Width: 606
VWidth: 0
GlyphClass: 2
Flags: W
LayerCount: 2
Fore
SplineSet
70 290 m 257
 144 290 l 257
 304 601 l 257
 463 290 l 257
 537 290 l 257
 340 676 l 257
 267 676 l 257
 70 290 l 257
EndSplineSet
EndChar

StartChar: asciitilde
Encoding: 126 126 194
Width: 696
VWidth: 0
GlyphClass: 2
Flags: W
LayerCount: 2
Fore
SplineSet
474 293 m 256
 490 293 506 296 521 301 c 256
 552 311 576 325 595 339 c 256
 604 345 612 351 617 355 c 257
 617 433 l 257
 591 411 571 397 558 390 c 256
 532 375 503 363 472 363 c 256
 435 363 396 382 354 402 c 256
 312 421 269 440 229 440 c 256
 197 440 145 430 80 378 c 257
 80 300 l 257
 131 345 184 370 227 370 c 256
 258 370 300 352 344 332 c 256
 388 312 433 293 474 293 c 256
EndSplineSet
EndChar

StartChar: asterisk
Encoding: 42 42 195
Width: 462
VWidth: 0
GlyphClass: 2
Flags: W
LayerCount: 2
Fore
SplineSet
204 388 m 257
 259 388 l 257
 258 519 l 257
 390 442 l 257
 418 489 l 257
 279 565 l 257
 418 640 l 257
 390 688 l 257
 257 611 l 257
 259 742 l 257
 204 742 l 257
 205 611 l 257
 73 688 l 257
 45 641 l 257
 184 565 l 257
 45 489 l 257
 73 441 l 257
 205 519 l 257
 204 388 l 257
EndSplineSet
EndChar

StartChar: at
Encoding: 64 64 196
Width: 944
VWidth: 0
GlyphClass: 2
Flags: W
LayerCount: 2
Fore
SplineSet
477 -151 m 256
 567 -151 643 -144 703 -130 c 257
 687 -60 l 257
 626 -75 557 -82 478 -82 c 256
 265 -82 134 56 134 269 c 256
 134 334 148 395 178 449 c 256
 237 558 349 621 480 621 c 256
 693 621 811 497 811 274 c 256
 811 153 769 77 706 77 c 256
 671 77 659 90 659 132 c 258
 659 485 l 257
 576 485 l 257
 576 459 l 257
 538 486 500 499 459 499 c 256
 330 499 254 408 254 252 c 256
 254 207 261 167 275 131 c 256
 303 60 357 21 435 21 c 256
 484 21 533 39 580 77 c 257
 593 25 629 8 699 8 c 256
 816 8 886 105 886 278 c 256
 886 535 737 690 479 690 c 256
 400 690 329 672 264 635 c 256
 135 562 59 426 59 270 c 256
 59 186 76 112 111 48 c 256
 180 -80 310 -151 477 -151 c 256
454 99 m 256
 377 99 339 151 339 254 c 256
 339 366 376 425 472 425 c 256
 501 425 535 412 575 386 c 257
 575 151 l 257
 527 116 487 99 454 99 c 256
EndSplineSet
EndChar

StartChar: b
Encoding: 98 98 198
Width: 571
VWidth: 0
GlyphClass: 2
Flags: W
AnchorPoint: "top" 321 519 basechar 0
LayerCount: 2
Fore
SplineSet
315 -13 m 256
 445 -13 517 92 518 249 c 257
 518 258 l 258
 518 421 453 532 320 532 c 256
 254 532 202 503 167 463 c 257
 167 741 l 257
 78 741 l 257
 78 0 l 257
 160 0 l 257
 164 53 l 257
 200 15 252 -13 315 -13 c 256
298 63 m 256
 243 63 198 92 167 130 c 257
 167 384 l 257
 198 423 243 455 300 455 c 256
 388 455 428 382 428 257 c 258
 428 249 l 257
 427 130 381 63 298 63 c 256
EndSplineSet
EndChar

StartChar: backslash
Encoding: 92 92 199
Width: 455
VWidth: 0
GlyphClass: 2
Flags: W
LayerCount: 2
Fore
SplineSet
366 -112 m 257
 451 -112 l 257
 123 730 l 257
 37 730 l 257
 366 -112 l 257
EndSplineSet
EndChar

StartChar: bar
Encoding: 124 124 200
Width: 348
VWidth: 0
GlyphClass: 2
Flags: W
LayerCount: 2
Fore
SplineSet
136 -169 m 257
 213 -169 l 257
 213 730 l 257
 136 730 l 257
 136 -169 l 257
EndSplineSet
EndChar

StartChar: braceleft
Encoding: 123 123 202
Width: 477
VWidth: 0
GlyphClass: 2
Flags: W
LayerCount: 2
Fore
SplineSet
393 -193 m 258
 427 -193 l 257
 427 -128 l 257
 402 -128 l 258
 317 -128 278 -85 278 1 c 258
 278 85 l 258
 278 180 232 243 141 274 c 257
 227 305 278 362 278 464 c 258
 278 548 l 258
 278 634 317 677 402 677 c 258
 427 677 l 257
 427 742 l 257
 393 742 l 258
 277 742 201 679 201 556 c 258
 201 485 l 258
 201 369 154 311 59 311 c 258
 50 311 l 257
 50 239 l 257
 59 239 l 258
 151 239 201 181 201 65 c 258
 201 -7 l 258
 201 -128 276 -193 393 -193 c 258
EndSplineSet
EndChar

StartChar: braceright
Encoding: 125 125 203
Width: 477
VWidth: 0
GlyphClass: 2
Flags: W
LayerCount: 2
Fore
SplineSet
50 -193 m 257
 84 -193 l 258
 203 -193 276 -128 276 -7 c 258
 276 65 l 258
 276 181 326 239 418 239 c 258
 427 239 l 257
 427 311 l 257
 418 311 l 258
 323 311 276 369 276 485 c 258
 276 556 l 258
 276 676 209 742 84 742 c 258
 50 742 l 257
 50 677 l 257
 75 677 l 258
 160 677 199 634 199 548 c 258
 199 464 l 258
 199 362 250 305 336 274 c 257
 245 243 199 180 199 85 c 258
 199 1 l 258
 199 -85 160 -128 75 -128 c 258
 50 -128 l 257
 50 -193 l 257
EndSplineSet
EndChar

StartChar: bracketleft
Encoding: 91 91 204
Width: 343
VWidth: 0
GlyphClass: 2
Flags: W
LayerCount: 2
Fore
SplineSet
85 -177 m 257
 303 -177 l 257
 303 -107 l 257
 170 -107 l 257
 170 692 l 257
 303 692 l 257
 303 762 l 257
 85 762 l 257
 85 -177 l 257
EndSplineSet
EndChar

StartChar: bracketright
Encoding: 93 93 205
Width: 343
VWidth: 0
GlyphClass: 2
Flags: W
LayerCount: 2
Fore
SplineSet
38 -177 m 257
 256 -177 l 257
 256 762 l 257
 38 762 l 257
 38 692 l 257
 172 692 l 257
 172 -107 l 257
 38 -107 l 257
 38 -177 l 257
EndSplineSet
EndChar

StartChar: breve
Encoding: 728 728 206
Width: 600
VWidth: 0
GlyphClass: 2
Flags: W
AnchorPoint: "top" 262 519 mark 0
LayerCount: 2
Fore
SplineSet
264 589 m 256
 366 589 425 646 425 727 c 257
 363 727 l 257
 355 686 330 666 263 666 c 256
 212 666 176 686 167 727 c 257
 105 727 l 257
 105 648 165 589 264 589 c 256
EndSplineSet
EndChar

StartChar: breve.cap
Encoding: 65537 -1 207
Width: 600
VWidth: 0
GlyphClass: 2
Flags: W
AnchorPoint: "top" 263 690 mark 0
LayerCount: 2
Fore
SplineSet
264 743 m 256
 366 743 425 801 425 881 c 257
 363 881 l 257
 355 840 330 820 263 820 c 256
 212 820 176 840 167 881 c 257
 105 881 l 257
 105 803 165 743 264 743 c 256
EndSplineSet
EndChar

StartChar: brokenbar
Encoding: 166 166 208
Width: 416
VWidth: 0
GlyphClass: 2
Flags: W
LayerCount: 2
Fore
SplineSet
170 -193 m 257
 246 -193 l 257
 246 118 l 257
 170 118 l 257
 170 -193 l 257
170 431 m 257
 246 431 l 257
 246 742 l 257
 170 742 l 257
 170 431 l 257
EndSplineSet
EndChar

StartChar: bullet
Encoding: 8226 8226 209
Width: 377
VWidth: 0
GlyphClass: 2
Flags: W
LayerCount: 2
Fore
SplineSet
189 239 m 256
 257 239 314 296 314 364 c 256
 314 434 259 490 189 490 c 256
 120 490 63 435 63 364 c 256
 63 296 120 239 189 239 c 256
EndSplineSet
EndChar

StartChar: uni2219
Encoding: 8729 8729 210
Width: 270
VWidth: 0
Flags: W
LayerCount: 2
Fore
SplineSet
123 230 m 256
 166 230 186 245 186 288 c 256
 186 329 170 346 123 346 c 256
 78 346 61 329 61 288 c 256
 61 250 75 230 123 230 c 256
EndSplineSet
EndChar

StartChar: c
Encoding: 99 99 211
Width: 513
VWidth: 0
GlyphClass: 2
Flags: W
AnchorPoint: "bot" 291 0 basechar 0
AnchorPoint: "top" 289 519 basechar 0
LayerCount: 2
Fore
SplineSet
285 -13 m 256
 385 -13 456 40 475 106 c 256
 476 109 477 111 478 114 c 257
 402 140 l 257
 384 90 341 61 284 61 c 256
 186 61 144 124 144 253 c 258
 144 266 l 257
 145 381 184 458 282 458 c 256
 343 458 383 423 398 373 c 257
 474 399 l 257
 473 401 473 403 472 406 c 256
 450 482 379 532 282 532 c 256
 134 532 54 432 53 267 c 257
 53 255 l 258
 53 87 133 -13 285 -13 c 256
EndSplineSet
EndChar

StartChar: caron
Encoding: 711 711 213
Width: 600
VWidth: 0
GlyphClass: 2
Flags: W
AnchorPoint: "top" 262 519 mark 0
LayerCount: 2
Fore
SplineSet
213 590 m 257
 316 590 l 257
 428 766 l 257
 355 766 l 257
 265 650 l 257
 175 766 l 257
 102 766 l 257
 213 590 l 257
EndSplineSet
EndChar

StartChar: caron.alt
Encoding: 65538 -1 214
Width: 600
VWidth: 0
GlyphClass: 2
Flags: W
LayerCount: 2
Fore
SplineSet
232 551 m 257
 291 551 l 257
 369 727 l 257
 264 727 l 257
 232 551 l 257
EndSplineSet
EndChar

StartChar: caron.cap
Encoding: 65539 -1 215
Width: 600
VWidth: 0
GlyphClass: 2
Flags: W
AnchorPoint: "top" 265 690 mark 0
LayerCount: 2
Fore
SplineSet
213 754 m 257
 316 754 l 257
 428 930 l 257
 355 930 l 257
 265 814 l 257
 175 930 l 257
 102 930 l 257
 213 754 l 257
EndSplineSet
EndChar

StartChar: cedilla
Encoding: 184 184 220
Width: 600
VWidth: 0
GlyphClass: 2
Flags: W
AnchorPoint: "bot" 266 0 mark 0
LayerCount: 2
Fore
SplineSet
236 -193 m 256
 313 -193 361 -161 361 -105 c 256
 361 -66 337 -29 281 -15 c 257
 293 9 l 257
 241 9 l 257
 211 -49 l 257
 270 -53 297 -73 297 -99 c 256
 297 -125 277 -137 238 -137 c 256
 205 -137 163 -127 144 -121 c 257
 119 -170 l 257
 133 -178 186 -193 236 -193 c 256
EndSplineSet
EndChar

StartChar: cent
Encoding: 162 162 221
Width: 502
VWidth: 0
GlyphClass: 2
Flags: W
LayerCount: 2
Fore
SplineSet
169 -127 m 257
 227 -127 l 257
 252 -13 l 257
 262 -14 273 -15 284 -15 c 256
 384 -15 436 24 468 79 c 257
 399 121 l 257
 368 78 338 58 283 58 c 258
 268 58 l 257
 350 435 l 257
 365 426 379 411 392 391 c 257
 461 433 l 257
 439 473 408 499 367 513 c 257
 393 629 l 257
 335 629 l 257
 312 525 l 257
 302 526 291 527 281 527 c 256
 134 527 57 433 57 255 c 256
 57 128 96 31 196 -2 c 257
 169 -127 l 257
213 74 m 257
 160 103 144 169 144 253 c 256
 144 378 182 454 280 454 c 258
 288 454 l 257
 296 453 l 257
 213 74 l 257
EndSplineSet
EndChar

StartChar: circumflex
Encoding: 710 710 222
Width: 600
VWidth: 0
GlyphClass: 2
Flags: W
AnchorPoint: "top" 263 519 mark 0
LayerCount: 2
Fore
SplineSet
102 590 m 257
 175 590 l 257
 265 706 l 257
 355 590 l 257
 428 590 l 257
 317 766 l 257
 214 766 l 257
 102 590 l 257
EndSplineSet
EndChar

StartChar: circumflex.cap
Encoding: 65540 -1 223
Width: 600
VWidth: 0
GlyphClass: 2
Flags: W
AnchorPoint: "top" 263 690 mark 0
LayerCount: 2
Fore
SplineSet
102 754 m 257
 175 754 l 257
 265 870 l 257
 355 754 l 257
 428 754 l 257
 317 930 l 257
 214 930 l 257
 102 754 l 257
EndSplineSet
EndChar

StartChar: colon
Encoding: 58 58 224
Width: 270
VWidth: 0
GlyphClass: 2
Flags: W
LayerCount: 2
Fore
SplineSet
135 -7 m 256
 177 -7 195 7 195 48 c 256
 195 87 179 103 135 103 c 256
 93 103 76 87 76 48 c 256
 76 13 89 -7 135 -7 c 256
135 402 m 256
 177 402 195 415 195 457 c 256
 195 496 179 512 135 512 c 256
 93 512 76 496 76 457 c 256
 76 422 89 402 135 402 c 256
EndSplineSet
EndChar

StartChar: comma
Encoding: 44 44 225
Width: 241
VWidth: 0
GlyphClass: 2
Flags: W
LayerCount: 2
Fore
SplineSet
89 -143 m 257
 140 -143 l 257
 166 -112 195 -42 195 38 c 256
 195 81 178 103 135 103 c 256
 92 103 76 84 76 48 c 256
 76 9 91 -7 130 -7 c 257
 130 -55 113 -113 89 -143 c 257
EndSplineSet
EndChar

StartChar: copyright
Encoding: 169 169 226
Width: 905
VWidth: 0
GlyphClass: 2
Flags: W
LayerCount: 2
Fore
SplineSet
465 83 m 256
 537 83 587 111 624 173 c 257
 566 208 l 257
 542 165 507 143 463 143 c 256
 379 143 343 193 343 299 c 256
 343 403 374 456 462 456 c 256
 517 456 541 427 560 394 c 257
 618 430 l 257
 591 480 543 516 463 516 c 256
 331 516 272 445 272 299 c 256
 272 154 332 83 465 83 c 256
453 -33 m 256
 394 -33 339 -18 288 12 c 256
 186 72 125 179 125 298 c 256
 125 357 140 412 169 463 c 256
 228 565 335 628 453 628 c 256
 511 628 566 613 617 584 c 256
 718 525 781 417 781 298 c 256
 781 238 766 183 737 132 c 256
 678 30 570 -33 453 -33 c 256
453 -96 m 256
 524 -96 590 -79 651 -44 c 256
 772 25 845 154 845 298 c 256
 845 368 828 434 793 495 c 256
 724 617 597 690 453 690 c 256
 382 690 316 673 255 638 c 256
 133 569 60 442 60 298 c 256
 60 227 77 161 112 100 c 256
 182 -22 310 -96 453 -96 c 256
EndSplineSet
EndChar

StartChar: currency
Encoding: 164 164 227
Width: 617
VWidth: 0
GlyphClass: 2
Flags: W
LayerCount: 2
Fore
SplineSet
103 36 m 257
 199 130 l 257
 230 107 266 95 308 95 c 256
 347 95 380 102 419 129 c 257
 514 36 l 257
 558 80 l 257
 466 175 l 257
 491 212 503 248 503 286 c 256
 503 329 491 367 467 398 c 257
 558 491 l 257
 514 536 l 257
 420 444 l 257
 389 468 351 480 308 480 c 256
 266 480 230 468 197 443 c 257
 103 536 l 257
 58 491 l 257
 152 396 l 257
 130 367 118 330 118 286 c 256
 118 245 130 210 153 177 c 257
 58 80 l 257
 103 36 l 257
308 163 m 256
 286 163 267 169 248 180 c 256
 210 203 189 243 189 286 c 256
 189 356 239 412 308 412 c 256
 378 412 432 357 432 286 c 256
 432 218 379 163 308 163 c 256
EndSplineSet
EndChar

StartChar: d
Encoding: 100 100 228
Width: 571
VWidth: 0
GlyphClass: 2
Flags: W
AnchorPoint: "mid" 430 647 basechar 0
AnchorPoint: "top" 262 519 basechar 0
LayerCount: 2
Fore
SplineSet
252 -13 m 256
 318 -13 370 16 406 56 c 257
 410 0 l 257
 492 0 l 257
 492 741 l 257
 403 741 l 257
 403 471 l 257
 365 510 318 532 260 532 c 256
 125 532 53 414 53 253 c 258
 53 243 l 257
 54 88 125 -13 252 -13 c 256
271 63 m 256
 183 63 144 132 144 250 c 258
 144 258 l 257
 145 380 190 455 276 455 c 256
 326 455 367 432 403 394 c 257
 403 132 l 257
 373 94 328 63 271 63 c 256
EndSplineSet
EndChar

StartChar: dagger
Encoding: 8224 8224 229
Width: 546
VWidth: 0
GlyphClass: 2
Flags: W
LayerCount: 2
Fore
SplineSet
225 -193 m 257
 320 -193 l 257
 305 422 l 257
 499 411 l 257
 499 498 l 257
 305 486 l 257
 317 742 l 257
 228 742 l 257
 241 486 l 257
 47 498 l 257
 47 411 l 257
 241 422 l 257
 225 -193 l 257
EndSplineSet
EndChar

StartChar: daggerdbl
Encoding: 8225 8225 230
Width: 545
VWidth: 0
GlyphClass: 2
Flags: W
LayerCount: 2
Fore
SplineSet
227 -193 m 257
 318 -193 l 257
 305 37 l 257
 490 25 l 257
 490 113 l 257
 305 101 l 257
 314 274 l 257
 305 447 l 257
 490 435 l 257
 490 523 l 257
 305 511 l 257
 318 741 l 257
 227 741 l 257
 240 511 l 257
 55 523 l 257
 55 435 l 257
 240 447 l 257
 231 274 l 257
 240 101 l 257
 55 113 l 257
 55 25 l 257
 240 37 l 257
 227 -193 l 257
EndSplineSet
EndChar

StartChar: degree
Encoding: 176 176 234
Width: 421
VWidth: 0
GlyphClass: 2
Flags: W
LayerCount: 2
Fore
SplineSet
212 468 m 256
 236 468 258 474 279 486 c 256
 321 509 348 557 348 606 c 256
 348 682 287 742 211 742 c 256
 133 742 74 679 74 606 c 256
 74 531 134 468 212 468 c 256
212 526 m 256
 167 526 132 563 132 606 c 256
 132 648 165 684 212 684 c 256
 256 684 290 649 290 605 c 256
 290 563 256 526 212 526 c 256
EndSplineSet
EndChar

StartChar: dieresis
Encoding: 168 168 235
Width: 600
VWidth: 0
GlyphClass: 2
Flags: W
AnchorPoint: "top" 268 519 mark 0
LayerCount: 2
Fore
SplineSet
170 590 m 256
 209 590 223 603 223 642 c 256
 223 678 210 694 170 694 c 256
 131 694 118 677 118 642 c 256
 118 610 129 590 170 590 c 256
363 590 m 256
 402 590 416 603 416 642 c 256
 416 678 403 694 363 694 c 256
 324 694 311 677 311 642 c 256
 311 610 322 590 363 590 c 256
EndSplineSet
EndChar

StartChar: dieresis.cap
Encoding: 65541 -1 236
Width: 600
VWidth: 0
GlyphClass: 2
Flags: W
AnchorPoint: "top" 263 690 mark 0
LayerCount: 2
Fore
SplineSet
168 754 m 256
 207 754 221 767 221 806 c 256
 221 842 208 858 168 858 c 256
 129 858 116 841 116 806 c 256
 116 774 127 754 168 754 c 256
361 754 m 256
 400 754 414 767 414 806 c 256
 414 842 401 858 361 858 c 256
 322 858 309 841 309 806 c 256
 309 774 320 754 361 754 c 256
EndSplineSet
EndChar

StartChar: divide
Encoding: 247 247 237
Width: 697
VWidth: 0
GlyphClass: 2
Flags: W
LayerCount: 2
Fore
SplineSet
304 21 m 257
 392 21 l 257
 392 109 l 257
 304 109 l 257
 304 21 l 257
80 251 m 257
 617 251 l 257
 617 321 l 257
 80 321 l 257
 80 251 l 257
304 463 m 257
 392 463 l 257
 392 551 l 257
 304 551 l 257
 304 463 l 257
EndSplineSet
EndChar

StartChar: uni2215
Encoding: 8725 8725 238
Width: 484
VWidth: 0
Flags: W
LayerCount: 2
Fore
SplineSet
4 -146 m 257
 85 -146 l 257
 435 742 l 257
 353 742 l 257
 4 -146 l 257
EndSplineSet
EndChar

StartChar: dollar
Encoding: 36 36 239
Width: 617
VWidth: 0
GlyphClass: 2
Flags: W
LayerCount: 2
Fore
SplineSet
277 -115 m 257
 340 -115 l 257
 340 780 l 257
 277 780 l 257
 277 -115 l 257
EndSplineSet
Refer: 125 83 N 1 0 0 1 0 0 2
EndChar

StartChar: dotaccent
Encoding: 729 729 240
Width: 600
VWidth: 0
GlyphClass: 2
Flags: W
AnchorPoint: "top" 266 519 mark 0
LayerCount: 2
Fore
SplineSet
265 590 m 256
 306 590 322 605 322 646 c 256
 322 685 308 702 265 702 c 256
 222 702 209 685 209 646 c 256
 209 611 220 590 265 590 c 256
EndSplineSet
EndChar

StartChar: dotaccent.cap
Encoding: 65542 -1 241
Width: 600
VWidth: 0
GlyphClass: 2
Flags: W
AnchorPoint: "top" 263 690 mark 0
LayerCount: 2
Fore
SplineSet
265 754 m 256
 306 754 322 769 322 810 c 256
 322 849 308 866 265 866 c 256
 222 866 209 849 209 810 c 256
 209 775 220 754 265 754 c 256
EndSplineSet
EndChar

StartChar: dotbelowcomb
Encoding: 803 803 242
Width: 600
VWidth: 0
GlyphClass: 2
Flags: W
LayerCount: 2
Fore
SplineSet
265 -182 m 256
 306 -182 322 -167 322 -126 c 256
 322 -87 308 -70 265 -70 c 256
 222 -70 209 -87 209 -126 c 256
 209 -161 220 -182 265 -182 c 256
EndSplineSet
EndChar

StartChar: dotlessi
Encoding: 305 305 243
Width: 250
VWidth: 0
GlyphClass: 2
Flags: W
PickledData: "(dp1
S'com.fontlab.hintData'
p2
(dp3
S'vhints'
p4
((dp5
S'position'
p6
I81
sS'width'
p7
I89
stp8
ss."
VStem: 81 89<0 519 0 519>
AnchorPoint: "ogonek" 121 0 basechar 0
AnchorPoint: "top" 128 519 basechar 0
LayerCount: 2
Fore
SplineSet
81 0 m 257
 170 0 l 257
 170 519 l 257
 81 519 l 257
 81 0 l 257
EndSplineSet
EndChar

StartChar: uni0237
Encoding: 567 567 244
Width: 260
VWidth: 0
Flags: W
AnchorPoint: "top" 134 519 basechar 0
LayerCount: 2
Fore
SplineSet
22 -201 m 256
 128 -201 177 -147 177 -31 c 258
 177 519 l 257
 88 519 l 257
 88 -25 l 258
 88 -90 74 -128 21 -128 c 256
 1 -128 -22 -124 -39 -117 c 257
 -55 -189 l 257
 -31 -197 -7 -201 22 -201 c 256
EndSplineSet
EndChar

StartChar: e
Encoding: 101 101 247
Width: 528
VWidth: 0
GlyphClass: 2
Flags: W
AnchorPoint: "ogonek" 345 0 basechar 0
AnchorPoint: "top" 279 519 basechar 0
LayerCount: 2
Fore
SplineSet
286 -13 m 256
 377 -13 432 17 472 68 c 257
 416 118 l 257
 383 79 344 61 290 61 c 256
 191 61 146 124 145 243 c 257
 483 244 l 257
 483 297 l 258
 483 449 414 532 277 532 c 256
 141 532 56 436 54 268 c 257
 54 253 l 258
 54 85 135 -13 286 -13 c 256
147 314 m 257
 147 318 l 257
 159 405 198 459 275 459 c 256
 357 459 394 405 395 314 c 257
 147 314 l 257
EndSplineSet
EndChar

StartChar: eight
Encoding: 56 56 256
Width: 573
VWidth: 0
GlyphClass: 2
Flags: W
LayerCount: 2
Fore
SplineSet
287 -13 m 256
 427 -13 521 52 521 181 c 256
 521 268 469 325 379 362 c 257
 469 402 504 446 504 521 c 256
 504 638 422 703 287 703 c 256
 150 703 70 637 70 521 c 256
 70 445 100 405 194 362 c 257
 107 330 52 269 52 181 c 256
 52 54 139 -13 287 -13 c 256
287 61 m 256
 194 61 145 108 145 182 c 256
 145 252 180 293 287 324 c 257
 394 290 429 250 429 182 c 256
 429 109 380 61 287 61 c 256
287 399 m 257
 195 429 163 461 163 521 c 256
 163 584 204 629 287 629 c 256
 366 629 412 583 412 519 c 256
 412 460 364 419 287 399 c 257
EndSplineSet
EndChar

StartChar: ellipsis
Encoding: 8230 8230 258
Width: 1029
VWidth: 0
GlyphClass: 2
Flags: W
LayerCount: 2
Fore
SplineSet
181 -7 m 256
 222 -7 241 7 241 48 c 256
 241 87 225 103 181 103 c 256
 138 103 122 87 122 48 c 256
 122 13 134 -7 181 -7 c 256
514 -7 m 256
 555 -7 574 7 574 48 c 256
 574 87 558 103 514 103 c 256
 471 103 455 87 455 48 c 256
 455 13 467 -7 514 -7 c 256
847 -7 m 256
 888 -7 907 7 907 48 c 256
 907 87 891 103 847 103 c 256
 804 103 788 87 788 48 c 256
 788 13 800 -7 847 -7 c 256
EndSplineSet
EndChar

StartChar: emdash
Encoding: 8212 8212 260
Width: 1029
GlyphClass: 2
Flags: W
HStem: 222 70<25 1005>
LayerCount: 2
Fore
SplineSet
25 222 m 1
 25 292 l 1
 1005 292 l 1
 1005 222 l 1
 25 222 l 1
EndSplineSet
EndChar

StartChar: endash
Encoding: 8211 8211 262
Width: 529
GlyphClass: 2
Flags: W
HStem: 222 70<25 505>
LayerCount: 2
Fore
SplineSet
25 222 m 1
 25 292 l 1
 505 292 l 1
 505 222 l 1
 25 222 l 1
EndSplineSet
EndChar

StartChar: eng
Encoding: 331 331 263
Width: 568
VWidth: 0
GlyphClass: 2
Flags: W
LayerCount: 2
Fore
SplineSet
165 442 m 257
 163 519 l 257
 78 519 l 257
 78 0 l 257
 167 0 l 257
 167 371 l 257
 208 416 261 452 311 452 c 256
 392 452 404 400 404 314 c 258
 404 -12 l 258
 404 -84 398 -123 343 -123 c 256
 317 -123 293 -118 269 -109 c 257
 248 -178 l 257
 277 -188 307 -193 340 -193 c 256
 447 -193 493 -146 493 -22 c 258
 493 339 l 258
 493 471 444 532 335 532 c 256
 266 532 206 490 165 442 c 257
EndSplineSet
EndChar

StartChar: equal
Encoding: 61 61 265
Width: 696
VWidth: 0
GlyphClass: 2
Flags: W
LayerCount: 2
Fore
SplineSet
80 138 m 257
 617 138 l 257
 617 208 l 257
 80 208 l 257
 80 138 l 257
80 364 m 257
 617 364 l 257
 617 434 l 257
 80 434 l 257
 80 364 l 257
EndSplineSet
EndChar

StartChar: estimated
Encoding: 8494 8494 266
Width: 683
VWidth: 0
GlyphClass: 2
Flags: W
LayerCount: 2
Fore
SplineSet
338 -12 m 256
 450 -12 529 33 600 142 c 257
 563 164 l 257
 503 66 434 26 338 26 c 256
 274 26 219 49 172 94 c 257
 172 304 l 257
 640 304 l 257
 637 467 536 620 340 620 c 256
 174 620 43 503 43 304 c 256
 43 144 147 -12 338 -12 c 256
172 342 m 257
 172 520 l 257
 217 566 273 582 340 582 c 256
 404 582 464 562 507 519 c 257
 507 342 l 257
 172 342 l 257
EndSplineSet
EndChar

StartChar: eth
Encoding: 240 240 267
Width: 575
VWidth: 0
GlyphClass: 2
Flags: W
LayerCount: 2
Fore
SplineSet
288 -13 m 256
 441 -13 521 82 521 260 c 256
 521 428 460 572 339 694 c 257
 402 729 l 257
 373 771 l 257
 298 728 l 257
 286 741 267 756 240 771 c 257
 155 771 l 257
 190 750 219 724 244 697 c 257
 151 643 l 257
 178 601 l 257
 277 658 l 257
 327 607 373 537 386 493 c 257
 349 519 309 533 268 533 c 256
 131 533 54 430 54 259 c 256
 54 83 134 -13 288 -13 c 256
288 62 m 256
 190 62 144 126 144 259 c 256
 144 399 188 457 287 457 c 256
 384 457 431 396 431 260 c 256
 431 123 383 62 288 62 c 256
EndSplineSet
EndChar

StartChar: exclam
Encoding: 33 33 269
Width: 270
VWidth: 0
GlyphClass: 2
Flags: W
LayerCount: 2
Fore
SplineSet
135 -7 m 256
 177 -7 195 7 195 48 c 256
 195 87 179 103 135 103 c 256
 93 103 76 87 76 48 c 256
 76 13 89 -7 135 -7 c 256
101 195 m 257
 172 195 l 257
 184 690 l 257
 87 690 l 257
 101 195 l 257
EndSplineSet
EndChar

StartChar: f
Encoding: 102 102 271
Width: 323
VWidth: 0
GlyphClass: 2
Flags: W
AnchorPoint: "top" 150 754 basechar 0
LayerCount: 2
Fore
SplineSet
102 0 m 257
 191 0 l 257
 191 448 l 257
 303 448 l 257
 303 519 l 257
 191 519 l 257
 191 576 l 258
 191 651 211 679 269 679 c 256
 289 679 316 673 333 666 c 257
 351 739 l 257
 324 749 296 754 263 754 c 256
 149 754 102 694 102 576 c 258
 102 519 l 257
 24 519 l 257
 24 448 l 257
 102 448 l 257
 102 0 l 257
EndSplineSet
EndChar

StartChar: uni02C9
Encoding: 713 713 277
Width: 0
Flags: W
HStem: 613 68<-149 149>
VStem: -149 298<613 681>
LayerCount: 2
Fore
SplineSet
-149 613 m 1
 -149 681 l 1
 149 681 l 1
 149 613 l 1
 -149 613 l 1
EndSplineSet
EndChar

StartChar: five
Encoding: 53 53 278
Width: 573
VWidth: 0
GlyphClass: 2
Flags: W
LayerCount: 2
Fore
SplineSet
274 -13 m 256
 429 -13 510 78 510 220 c 256
 510 357 433 441 296 441 c 256
 254 441 214 429 185 411 c 257
 207 607 l 257
 485 607 l 257
 485 690 l 257
 130 690 l 257
 91 316 l 257
 150 313 l 257
 178 347 215 362 273 362 c 256
 365 362 415 303 415 220 c 256
 415 127 368 65 272 65 c 256
 203 65 158 104 144 155 c 257
 64 126 l 257
 65 123 67 119 68 115 c 256
 90 36 168 -13 274 -13 c 256
EndSplineSet
EndChar

StartChar: florin
Encoding: 402 402 280
Width: 537
VWidth: 0
GlyphClass: 2
Flags: W
LayerCount: 2
Fore
SplineSet
77 -194 m 256
 150 -194 195 -155 215 -57 c 258
 322 442 l 257
 425 442 l 257
 439 512 l 257
 337 512 l 257
 352 578 l 258
 362 624 368 669 419 669 c 256
 447 669 468 662 499 651 c 257
 522 723 l 257
 499 729 465 742 421 742 c 256
 333 742 293 695 268 582 c 258
 252 512 l 257
 168 512 l 257
 153 442 l 257
 237 442 l 257
 142 -4 l 258
 126 -80 118 -121 64 -121 c 256
 42 -121 16 -117 -15 -108 c 257
 -32 -175 l 257
 2 -188 39 -194 77 -194 c 256
EndSplineSet
EndChar

StartChar: four
Encoding: 52 52 281
Width: 595
VWidth: 0
GlyphClass: 2
Flags: W
LayerCount: 2
Fore
SplineSet
367 0 m 257
 457 0 l 257
 457 156 l 257
 552 156 l 257
 552 233 l 257
 457 233 l 257
 457 690 l 257
 367 690 l 257
 30 230 l 257
 30 156 l 257
 367 156 l 257
 367 0 l 257
124 233 m 257
 367 557 l 257
 367 233 l 257
 124 233 l 257
EndSplineSet
EndChar

StartChar: uni2074
Encoding: 8308 8308 282
Width: 434
Flags: W
HStem: 409 61<108 254 332 394>
VStem: 254 78<320 409 470 629>
LayerCount: 2
Fore
SplineSet
332 409 m 1
 332 320 l 1
 254 320 l 1
 254 409 l 1
 21 409 l 1
 21 470 l 1
 263 735 l 1
 332 735 l 1
 332 470 l 1
 394 470 l 1
 394 409 l 1
 332 409 l 1
254 629 m 1
 108 470 l 1
 254 470 l 1
 254 629 l 1
EndSplineSet
EndChar

StartChar: fraction
Encoding: 8260 8260 283
Width: 119
GlyphClass: 2
Flags: W
HStem: 681 20G<211.532 303>
LayerCount: 2
Fore
SplineSet
-78 -25 m 1
 -158 -25 l 1
 222 701 l 1
 303 701 l 1
 -78 -25 l 1
EndSplineSet
EndChar

StartChar: g
Encoding: 103 103 284
Width: 571
VWidth: 0
GlyphClass: 2
Flags: W
AnchorPoint: "top" 258 519 basechar 0
LayerCount: 2
Fore
SplineSet
270 -201 m 256
 422 -201 494 -132 494 6 c 258
 494 519 l 257
 412 519 l 257
 408 466 l 257
 370 507 321 532 261 532 c 256
 128 532 56 421 54 264 c 257
 54 255 l 258
 54 97 123 -4 253 -4 c 256
 318 -4 369 24 405 62 c 257
 405 2 l 258
 405 -89 363 -127 269 -127 c 256
 214 -127 162 -112 123 -86 c 257
 94 -157 l 257
 139 -184 202 -201 270 -201 c 256
272 72 m 256
 185 72 145 137 145 256 c 258
 145 264 l 257
 146 376 186 455 277 455 c 256
 327 455 369 431 405 393 c 257
 405 142 l 257
 368 98 325 72 272 72 c 256
EndSplineSet
EndChar

StartChar: germandbls
Encoding: 223 223 291
Width: 584
VWidth: 0
GlyphClass: 2
Flags: W
LayerCount: 2
Fore
SplineSet
83 533 m 258
 83 0 l 257
 172 0 l 257
 172 538 l 258
 172 660 209 707 292 707 c 256
 364 707 400 674 400 607 c 256
 400 522 352 479 243 479 c 257
 243 401 l 257
 362 401 447 377 447 241 c 256
 447 114 379 68 284 68 c 256
 267 68 249 69 231 72 c 257
 231 -8 l 257
 254 -12 277 -13 299 -13 c 256
 433 -13 539 55 539 236 c 256
 539 355 479 436 359 450 c 257
 444 464 490 521 490 617 c 256
 490 732 412 784 294 784 c 256
 153 784 83 713 83 533 c 258
EndSplineSet
EndChar

StartChar: grave
Encoding: 96 96 292
Width: 443
VWidth: 0
GlyphClass: 2
Flags: W
AnchorPoint: "top" 263 519 mark 0
LayerCount: 2
Fore
SplineSet
223 591 m 257
 296 591 l 257
 209 749 l 257
 95 749 l 257
 223 591 l 257
EndSplineSet
EndChar

StartChar: grave.cap
Encoding: 65546 -1 293
Width: 600
VWidth: 0
GlyphClass: 2
Flags: W
AnchorPoint: "top" 303 690 mark 0
LayerCount: 2
Fore
SplineSet
264 754 m 257
 333 754 l 257
 246 930 l 257
 131 930 l 257
 264 754 l 257
EndSplineSet
EndChar

StartChar: gravecomb
Encoding: 768 768 294
Width: 600
VWidth: 0
GlyphClass: 2
Flags: W
LayerCount: 2
Fore
SplineSet
-1 590 m 257
 68 590 l 257
 -19 766 l 257
 -134 766 l 257
 -1 590 l 257
EndSplineSet
EndChar

StartChar: greater
Encoding: 62 62 295
Width: 696
VWidth: 0
GlyphClass: 2
Flags: W
LayerCount: 2
Fore
SplineSet
80 30 m 257
 617 256 l 257
 617 317 l 257
 80 543 l 257
 80 467 l 257
 519 286 l 257
 80 106 l 257
 80 30 l 257
EndSplineSet
EndChar

StartChar: greaterequal
Encoding: 8805 8805 296
Width: 697
VWidth: 0
GlyphClass: 2
Flags: W
LayerCount: 2
Fore
SplineSet
80 120 m 257
 617 310 l 257
 617 371 l 257
 80 590 l 257
 80 514 l 257
 520 340 l 257
 80 196 l 257
 80 120 l 257
80 0 m 257
 617 0 l 257
 617 70 l 257
 80 70 l 257
 80 0 l 257
EndSplineSet
EndChar

StartChar: guillemotleft
Encoding: 171 171 297
Width: 598
VWidth: 0
GlyphClass: 2
Flags: W
LayerCount: 2
Fore
SplineSet
227 26 m 257
 323 26 l 257
 131 256 l 257
 323 486 l 257
 227 486 l 257
 35 256 l 257
 227 26 l 257
466 26 m 257
 562 26 l 257
 370 256 l 257
 562 486 l 257
 466 486 l 257
 274 256 l 257
 466 26 l 257
EndSplineSet
EndChar

StartChar: guillemotright
Encoding: 187 187 298
Width: 598
VWidth: 0
GlyphClass: 2
Flags: W
LayerCount: 2
Fore
SplineSet
36 26 m 257
 132 26 l 257
 324 256 l 257
 132 486 l 257
 36 486 l 257
 228 256 l 257
 36 26 l 257
275 26 m 257
 371 26 l 257
 563 256 l 257
 371 486 l 257
 275 486 l 257
 467 256 l 257
 275 26 l 257
EndSplineSet
EndChar

StartChar: guilsinglleft
Encoding: 8249 8249 299
Width: 358
GlyphClass: 2
Flags: W
VStem: 35 288
LayerCount: 2
Fore
SplineSet
227 26 m 1
 35 256 l 1
 227 486 l 1
 323 486 l 1
 131 256 l 1
 323 26 l 1
 227 26 l 1
EndSplineSet
EndChar

StartChar: guilsinglright
Encoding: 8250 8250 300
Width: 358
GlyphClass: 2
Flags: W
VStem: 36 288
LayerCount: 2
Fore
SplineSet
132 26 m 1
 36 26 l 1
 228 256 l 1
 36 486 l 1
 132 486 l 1
 324 256 l 1
 132 26 l 1
EndSplineSet
EndChar

StartChar: h
Encoding: 104 104 301
Width: 568
VWidth: 0
GlyphClass: 2
Flags: W
AnchorPoint: "mid" 122 616 basechar 0
AnchorPoint: "top" 336 519 basechar 0
LayerCount: 2
Fore
SplineSet
78 0 m 257
 167 0 l 257
 167 373 l 257
 209 416 263 452 312 452 c 256
 382 452 405 435 405 314 c 258
 405 0 l 257
 494 0 l 257
 494 338 l 258
 494 470 445 532 336 532 c 256
 269 532 208 491 167 445 c 257
 167 741 l 257
 78 741 l 257
 78 0 l 257
EndSplineSet
EndChar

StartChar: hookabovecomb
Encoding: 777 777 304
Width: 600
VWidth: 0
GlyphClass: 2
Flags: W
LayerCount: 2
Fore
SplineSet
-32 567 m 257
 16 567 l 257
 16 585 l 257
 64 591 88 617 88 661 c 256
 88 701 56 728 -3 728 c 256
 -42 728 -75 715 -89 702 c 257
 -67 660 l 257
 -53 670 -31 676 -18 676 c 256
 7 676 16 667 16 649 c 256
 16 631 4 622 -20 622 c 258
 -32 622 l 257
 -32 567 l 257
EndSplineSet
EndChar

StartChar: hungarumlaut
Encoding: 733 733 305
Width: 600
VWidth: 0
GlyphClass: 2
Flags: W
AnchorPoint: "top" 222 519 mark 0
LayerCount: 2
Fore
SplineSet
110 590 m 257
 179 590 l 257
 312 766 l 257
 197 766 l 257
 110 590 l 257
280 590 m 257
 349 590 l 257
 482 766 l 257
 367 766 l 257
 280 590 l 257
EndSplineSet
EndChar

StartChar: hungarumlaut.cap
Encoding: 65547 -1 306
Width: 600
VWidth: 0
GlyphClass: 2
Flags: W
AnchorPoint: "top" 223 690 mark 0
LayerCount: 2
Fore
SplineSet
110 754 m 257
 179 754 l 257
 312 930 l 257
 197 930 l 257
 110 754 l 257
280 754 m 257
 349 754 l 257
 482 930 l 257
 367 930 l 257
 280 754 l 257
EndSplineSet
EndChar

StartChar: hyphen
Encoding: 45 45 307
Width: 351
VWidth: 0
GlyphClass: 2
Flags: W
AnchorPoint: "mid" 174 275 mark 0
LayerCount: 2
Fore
SplineSet
37 236 m 257
 315 236 l 257
 315 311 l 257
 37 311 l 257
 37 236 l 257
EndSplineSet
EndChar

StartChar: i
Encoding: 105 105 308
Width: 250
VWidth: 0
GlyphClass: 2
Flags: W
LayerCount: 2
Fore
SplineSet
81 0 m 257
 170 0 l 257
 170 519 l 257
 81 519 l 257
 81 0 l 257
126 621 m 256
 163 621 178 636 178 671 c 256
 178 706 163 720 126 720 c 256
 89 720 74 706 74 671 c 256
 74 636 89 621 126 621 c 256
EndSplineSet
EndChar

StartChar: infinity
Encoding: 8734 8734 319
Width: 838
VWidth: 0
GlyphClass: 2
Flags: W
LayerCount: 2
Fore
SplineSet
226 119 m 256
 306 119 371 167 418 234 c 257
 420 234 l 257
 463 166 531 119 614 119 c 256
 721 119 789 196 789 294 c 256
 789 392 718 464 610 464 c 256
 541 464 471 424 420 350 c 257
 418 350 l 257
 365 426 300 464 224 464 c 256
 190 464 160 457 133 442 c 256
 80 413 49 356 49 290 c 256
 49 189 122 119 226 119 c 256
230 188 m 256
 170 188 127 230 127 290 c 256
 127 347 161 395 229 395 c 256
 286 395 341 353 380 292 c 257
 343 235 291 188 230 188 c 256
607 188 m 256
 548 188 496 228 457 292 c 257
 497 352 543 395 607 395 c 256
 669 395 710 357 710 293 c 256
 710 227 670 188 607 188 c 256
EndSplineSet
EndChar

StartChar: integral
Encoding: 8747 8747 320
Width: 517
VWidth: 0
GlyphClass: 2
Flags: W
LayerCount: 2
Fore
SplineSet
140 -233 m 256
 247 -233 307 -166 307 -51 c 258
 307 576 l 258
 307 639 335 673 390 673 c 256
 410 673 426 669 439 663 c 257
 459 734 l 257
 445 742 409 749 377 749 c 256
 266 749 209 680 209 568 c 258
 209 -59 l 258
 209 -125 182 -157 127 -157 c 256
 110 -157 93 -154 78 -147 c 257
 58 -219 l 257
 75 -227 113 -233 140 -233 c 256
EndSplineSet
EndChar

StartChar: j
Encoding: 106 106 323
Width: 260
VWidth: 0
GlyphClass: 2
Flags: W
LayerCount: 2
Fore
SplineSet
22 -201 m 256
 128 -201 177 -147 177 -31 c 258
 177 519 l 257
 88 519 l 257
 88 -25 l 258
 88 -90 74 -128 21 -128 c 256
 1 -128 -22 -124 -39 -117 c 257
 -55 -189 l 257
 -31 -197 -7 -201 22 -201 c 256
135 621 m 256
 172 621 187 636 187 671 c 256
 187 706 172 720 135 720 c 256
 98 720 83 706 83 671 c 256
 83 636 98 621 135 621 c 256
EndSplineSet
EndChar

StartChar: k
Encoding: 107 107 326
Width: 512
VWidth: 0
GlyphClass: 2
Flags: W
AnchorPoint: "bot" 281 0 basechar 0
AnchorPoint: "top" 290 519 basechar 0
LayerCount: 2
Fore
SplineSet
78 0 m 257
 167 0 l 257
 167 168 l 257
 225 236 l 257
 391 0 l 257
 499 0 l 257
 287 288 l 257
 482 519 l 257
 374 519 l 257
 167 259 l 257
 167 741 l 257
 78 741 l 257
 78 0 l 257
EndSplineSet
EndChar

StartChar: kgreenlandic
Encoding: 312 312 329
Width: 512
VWidth: 0
GlyphClass: 2
Flags: W
LayerCount: 2
Fore
SplineSet
78 0 m 257
 167 0 l 257
 167 168 l 257
 225 236 l 257
 391 0 l 257
 499 0 l 257
 287 288 l 257
 401 426 l 258
 419 448 449 443 469 440 c 257
 482 513 l 257
 437 528 394 531 358 488 c 258
 167 259 l 257
 167 519 l 257
 78 519 l 257
 78 0 l 257
EndSplineSet
EndChar

StartChar: l
Encoding: 108 108 330
Width: 255
VWidth: 0
GlyphClass: 2
Flags: W
LayerCount: 2
Fore
SplineSet
83 0 m 257
 172 0 l 257
 172 741 l 257
 83 741 l 257
 83 0 l 257
EndSplineSet
EndChar

StartChar: less
Encoding: 60 60 335
Width: 696
VWidth: 0
GlyphClass: 2
Flags: W
LayerCount: 2
Fore
SplineSet
617 30 m 257
 617 106 l 257
 177 286 l 257
 617 467 l 257
 617 543 l 257
 80 317 l 257
 80 256 l 257
 617 30 l 257
EndSplineSet
EndChar

StartChar: lessequal
Encoding: 8804 8804 336
Width: 697
VWidth: 0
GlyphClass: 2
Flags: W
LayerCount: 2
Fore
SplineSet
617 120 m 257
 617 196 l 257
 177 340 l 257
 617 514 l 257
 617 590 l 257
 80 371 l 257
 80 310 l 257
 617 120 l 257
80 0 m 257
 617 0 l 257
 617 70 l 257
 80 70 l 257
 80 0 l 257
EndSplineSet
EndChar

StartChar: logicalnot
Encoding: 172 172 338
Width: 640
VWidth: 0
GlyphClass: 2
Flags: W
LayerCount: 2
Fore
SplineSet
478 181 m 257
 558 181 l 257
 558 441 l 257
 73 441 l 257
 73 367 l 257
 478 367 l 257
 478 181 l 257
EndSplineSet
EndChar

StartChar: longs
Encoding: 383 383 339
Width: 270
VWidth: 0
GlyphClass: 2
Flags: W
LayerCount: 2
Fore
SplineSet
91 0 m 257
 180 0 l 257
 180 588 l 258
 180 676 200 700 260 700 c 256
 283 700 318 691 337 681 c 257
 361 757 l 257
 331 770 296 776 257 776 c 256
 135 776 91 717 91 588 c 258
 91 535 l 257
 25 535 l 257
 25 463 l 257
 91 463 l 257
 91 0 l 257
EndSplineSet
EndChar

StartChar: lozenge
Encoding: 9674 9674 340
Width: 632
VWidth: 0
GlyphClass: 2
Flags: W
LayerCount: 2
Fore
SplineSet
291 0 m 257
 340 0 l 257
 561 350 l 257
 340 700 l 257
 291 700 l 257
 71 349 l 257
 291 0 l 257
316 86 m 257
 150 350 l 257
 316 613 l 257
 481 350 l 257
 316 86 l 257
EndSplineSet
EndChar

StartChar: lslash
Encoding: 322 322 341
Width: 255
VWidth: 0
GlyphClass: 2
Flags: W
LayerCount: 2
Fore
SplineSet
-14 262 m 257
 276 442 l 257
 276 519 l 257
 -14 339 l 257
 -14 262 l 257
EndSplineSet
Refer: 330 108 N 1 0 0 1 0 0 2
EndChar

StartChar: m
Encoding: 109 109 342
Width: 851
VWidth: 0
GlyphClass: 2
Flags: W
AnchorPoint: "top" 468 519 basechar 0
LayerCount: 2
Fore
SplineSet
78 0 m 257
 167 0 l 257
 167 374 l 257
 207 423 252 452 298 452 c 256
 365 452 382 429 382 308 c 258
 382 0 l 257
 472 0 l 257
 472 353 l 257
 516 417 554 452 602 452 c 256
 670 452 687 437 687 308 c 258
 687 0 l 257
 776 0 l 257
 776 332 l 258
 776 470 733 532 628 532 c 256
 555 532 503 488 459 432 c 257
 442 498 398 532 326 532 c 256
 258 532 204 493 165 445 c 257
 163 519 l 257
 78 519 l 257
 78 0 l 257
EndSplineSet
EndChar

StartChar: macron
Encoding: 175 175 343
Width: 600
VWidth: 0
GlyphClass: 2
Flags: W
AnchorPoint: "top" 265 519 mark 0
AnchorPoint: "mid" 256 647 mark 0
LayerCount: 2
Fore
SplineSet
116 613 m 257
 414 613 l 257
 414 681 l 257
 116 681 l 257
 116 613 l 257
EndSplineSet
EndChar

StartChar: macron.cap
Encoding: 65548 -1 344
Width: 600
VWidth: 0
GlyphClass: 2
Flags: W
AnchorPoint: "top" 272 690 mark 0
AnchorPoint: "mid" 268 812 mark 0
LayerCount: 2
Fore
SplineSet
116 777 m 257
 414 777 l 257
 414 845 l 257
 116 845 l 257
 116 777 l 257
EndSplineSet
EndChar

StartChar: minus
Encoding: 8722 8722 346
Width: 697
VWidth: 0
GlyphClass: 2
Flags: W
LayerCount: 2
Fore
SplineSet
80 251 m 257
 617 251 l 257
 617 321 l 257
 80 321 l 257
 80 251 l 257
EndSplineSet
EndChar

StartChar: uni03BC
Encoding: 956 956 347
Width: 571
VWidth: 0
Flags: W
LayerCount: 2
Fore
SplineSet
68 -193 m 257
 153 -193 l 257
 153 25 l 257
 197 -8 230 -15 279 -15 c 256
 333 -15 372 9 411 58 c 257
 416 0 l 257
 497 0 l 257
 497 512 l 257
 411 512 l 257
 411 138 l 257
 372 91 328 68 278 68 c 256
 230 68 181 90 153 125 c 257
 153 512 l 257
 68 512 l 257
 68 -193 l 257
EndSplineSet
EndChar

StartChar: multiply
Encoding: 215 215 348
Width: 696
VWidth: 0
GlyphClass: 2
Flags: W
LayerCount: 2
Fore
SplineSet
150 38 m 257
 348 237 l 257
 547 38 l 257
 596 88 l 257
 398 286 l 257
 596 485 l 257
 547 534 l 257
 348 336 l 257
 150 534 l 257
 100 485 l 257
 299 286 l 257
 100 88 l 257
 150 38 l 257
EndSplineSet
EndChar

StartChar: n
Encoding: 110 110 349
Width: 568
VWidth: 0
GlyphClass: 2
Flags: W
AnchorPoint: "bot" 295 0 basechar 0
AnchorPoint: "top" 300 519 basechar 0
LayerCount: 2
Fore
SplineSet
78 0 m 257
 167 0 l 257
 167 371 l 257
 208 416 261 452 311 452 c 256
 392 452 404 400 404 314 c 258
 404 0 l 257
 493 0 l 257
 493 339 l 258
 493 471 444 532 335 532 c 256
 266 532 206 490 165 442 c 257
 163 519 l 257
 78 519 l 257
 78 0 l 257
EndSplineSet
EndChar

StartChar: nine
Encoding: 57 57 354
Width: 573
VWidth: 0
GlyphClass: 2
Flags: W
LayerCount: 2
Fore
SplineSet
251 -13 m 256
 418 -13 512 109 512 328 c 258
 512 400 l 257
 511 592 438 703 274 703 c 256
 140 703 49 611 49 465 c 256
 49 319 130 241 262 241 c 256
 327 241 380 268 415 301 c 257
 415 296 414 278 414 274 c 256
 404 139 354 64 251 64 c 256
 198 64 160 79 122 110 c 257
 83 38 l 257
 126 4 185 -13 251 -13 c 256
275 319 m 256
 186 319 141 376 141 467 c 256
 141 560 189 626 275 626 c 256
 377 626 414 560 416 415 c 257
 416 377 l 257
 387 345 333 319 275 319 c 256
EndSplineSet
EndChar

StartChar: notequal
Encoding: 8800 8800 356
Width: 697
VWidth: 0
GlyphClass: 2
Flags: W
LayerCount: 2
Fore
SplineSet
134 -40 m 257
 214 -40 l 257
 307 138 l 257
 617 138 l 257
 617 208 l 257
 344 208 l 257
 425 363 l 257
 617 363 l 257
 617 433 l 257
 462 433 l 257
 568 635 l 257
 487 635 l 257
 381 433 l 257
 80 433 l 257
 80 363 l 257
 344 363 l 257
 263 208 l 257
 80 208 l 257
 80 138 l 257
 227 138 l 257
 134 -40 l 257
EndSplineSet
EndChar

StartChar: numbersign
Encoding: 35 35 358
Width: 706
VWidth: 0
GlyphClass: 2
Flags: W
LayerCount: 2
Fore
SplineSet
124 0 m 257
 187 0 l 257
 238 192 l 257
 389 192 l 257
 339 0 l 257
 402 0 l 257
 453 192 l 257
 599 192 l 257
 599 252 l 257
 470 252 l 257
 516 424 l 257
 656 424 l 257
 656 485 l 257
 532 485 l 257
 583 676 l 257
 520 676 l 257
 468 485 l 257
 317 485 l 257
 368 676 l 257
 305 676 l 257
 254 485 l 257
 107 485 l 257
 107 424 l 257
 238 424 l 257
 191 252 l 257
 50 252 l 257
 50 192 l 257
 175 192 l 257
 124 0 l 257
254 252 m 257
 301 424 l 257
 453 424 l 257
 406 252 l 257
 254 252 l 257
EndSplineSet
EndChar

StartChar: o
Encoding: 111 111 359
Width: 566
VWidth: 0
GlyphClass: 2
Flags: W
AnchorPoint: "ogonek" 335 0 basechar 0
AnchorPoint: "top" 284 519 basechar 0
LayerCount: 2
Fore
SplineSet
284 61 m 256
 186 61 144 135 144 256 c 258
 144 263 l 257
 145 385 188 458 283 458 c 256
 377 458 421 386 422 264 c 257
 422 256 l 258
 422 134 379 61 284 61 c 256
284 -13 m 256
 432 -13 513 89 513 256 c 258
 513 265 l 257
 512 433 429 532 283 532 c 256
 138 532 54 434 53 265 c 257
 53 256 l 258
 53 88 136 -13 284 -13 c 256
EndSplineSet
EndChar

StartChar: oe
Encoding: 339 339 366
Width: 896
VWidth: 0
GlyphClass: 2
Flags: W
LayerCount: 2
Fore
SplineSet
851 297 m 258
 851 449 782 532 645 532 c 256
 566.961 532 496 490 467 422 c 257
 439 490 365.914 532 283 532 c 256
 138 532 54 434 53 265 c 258
 53 256 l 258
 53 87.9999 136 -13.0001 284 -13.0001 c 256
 366.695 -13.0001 438 29 467 96 c 257
 496 28 568.548 -13.0001 654 -13.0001 c 256
 745 -13.0001 800 16.9999 840 67.9999 c 257
 784 118 l 257
 751 78.9999 712 60.9999 658 60.9999 c 256
 559 60.9999 514 124 513 243 c 257
 851 244 l 257
 851 297 l 258
515 314 m 257
 515 318 l 257
 527 405 566 459 643 459 c 256
 725 459 762 405 763 314 c 257
 515 314 l 257
144 256 m 258
 144 263 l 258
 145 385 188 458 283 458 c 256
 377 458 421 386 422 264 c 258
 422 256 l 258
 422 134 379 60.9999 284 60.9999 c 256
 186 60.9999 144 135 144 256 c 258
EndSplineSet
EndChar

StartChar: ogonek
Encoding: 731 731 367
Width: 600
VWidth: 0
GlyphClass: 2
Flags: W
AnchorPoint: "ogonek" 294 0 mark 0
LayerCount: 2
Fore
SplineSet
244 -193 m 256
 279 -193 306 -181 341 -159 c 257
 314 -106 l 257
 294 -116 277 -125 254 -125 c 256
 231 -125 218 -113 218 -90 c 256
 218 -43 278 -21 342 0 c 257
 307 37 l 257
 199 8 149 -43 149 -103 c 256
 149 -162 184 -193 244 -193 c 256
EndSplineSet
EndChar

StartChar: one
Encoding: 49 49 372
Width: 595
VWidth: 0
GlyphClass: 2
Flags: W
LayerCount: 2
Fore
SplineSet
275 0 m 257
 367 0 l 257
 367 690 l 257
 303 687 l 257
 286 621 199 607 119 602 c 257
 119 536 l 257
 275 537 l 257
 275 0 l 257
EndSplineSet
EndChar

StartChar: onehalf
Encoding: 189 189 373
Width: 950
VWidth: 0
GlyphClass: 2
Flags: W
LayerCount: 2
Fore
SplineSet
557 -5 m 257
 879 -5 l 257
 879 59 l 257
 659 59 l 257
 716 103 759 137 786 161 c 256
 841 210 865 245 865 300 c 256
 865 376 808 419 712 419 c 256
 640 419 588 393 553 340 c 257
 618 302 l 257
 644 338 675 356 710 356 c 256
 749 356 782 337 782 298 c 257
 783 275 774 252 754 229 c 256
 714 183 605 96 557 62 c 257
 557 -5 l 257
150 264 m 257
 229 264 l 257
 229 679 l 257
 168 679 l 257
 152 623 125 604 41 602 c 257
 41 550 l 257
 150 550 l 257
 150 264 l 257
194 -25 m 257
 274 -25 l 257
 655 701 l 257
 574 701 l 257
 194 -25 l 257
EndSplineSet
EndChar

StartChar: onequarter
Encoding: 188 188 374
Width: 950
VWidth: 0
GlyphClass: 2
Flags: W
LayerCount: 2
Fore
SplineSet
770 -4 m 257
 848 -4 l 257
 848 85 l 257
 910 85 l 257
 910 146 l 257
 848 146 l 257
 848 411 l 257
 779 411 l 257
 537 146 l 257
 537 85 l 257
 770 85 l 257
 770 -4 l 257
188 264 m 257
 267 264 l 257
 267 679 l 257
 206 679 l 257
 190 623 163 604 79 602 c 257
 79 550 l 257
 188 550 l 257
 188 264 l 257
235 -25 m 257
 315 -25 l 257
 696 701 l 257
 615 701 l 257
 235 -25 l 257
624 146 m 257
 770 305 l 257
 770 146 l 257
 624 146 l 257
EndSplineSet
EndChar

StartChar: uni00B9
Encoding: 185 185 375
Width: 434
VWidth: 0
Flags: W
LayerCount: 2
Fore
SplineSet
198 320 m 257
 277 320 l 257
 277 735 l 257
 216 735 l 257
 200 679 173 660 89 658 c 257
 89 606 l 257
 198 606 l 257
 198 320 l 257
EndSplineSet
EndChar

StartChar: ordfeminine
Encoding: 170 170 377
Width: 380
VWidth: 0
GlyphClass: 2
Flags: W
LayerCount: 2
Fore
SplineSet
149 390 m 256
 191 390 222 409 253 434 c 257
 253 399 l 257
 318 399 l 257
 318 624 l 258
 318 713 275 742 179 742 c 256
 103 742 68 713 48 680 c 257
 101 648 l 257
 116 673 141 686 178 686 c 256
 227 686 253 674 253 627 c 258
 253 615 l 257
 176 609 l 257
 83 599 45 563 45 495 c 256
 45 434 83 390 149 390 c 256
166 447 m 256
 129 447 111 461 111 496 c 256
 111 541 145 553 205 558 c 258
 253 563 l 257
 253 492 l 257
 225 469 197 447 166 447 c 256
EndSplineSet
EndChar

StartChar: ordmasculine
Encoding: 186 186 378
Width: 402
VWidth: 0
GlyphClass: 2
Flags: W
LayerCount: 2
Fore
SplineSet
202 446 m 256
 143 446 117 481 117 565 c 256
 117 650 143 686 202 686 c 256
 267 686 287 639 287 565 c 256
 287 493 267 446 202 446 c 256
202 390 m 256
 300 390 353 450 353 565 c 256
 353 680 300 742 202 742 c 256
 103 742 50 682 50 565 c 256
 50 451 102 390 202 390 c 256
EndSplineSet
EndChar

StartChar: oslash
Encoding: 248 248 379
Width: 566
VWidth: 0
GlyphClass: 2
Flags: W
LayerCount: 2
Fore
SplineSet
117 -73 m 257
 176 -73 l 257
 451 611 l 257
 393 611 l 257
 117 -73 l 257
EndSplineSet
Refer: 359 111 N 1 0 0 1 0 0 2
EndChar

StartChar: p
Encoding: 112 112 382
Width: 571
VWidth: 0
GlyphClass: 2
Flags: W
AnchorPoint: "top" 330 519 basechar 0
LayerCount: 2
Fore
SplineSet
78 -197 m 257
 167 -197 l 257
 167 47 l 257
 207 8 253 -13 312 -13 c 256
 442 -13 516 94 518 248 c 257
 518 258 l 258
 518 422 450 532 319 532 c 256
 252 532 200 502 164 461 c 257
 158 519 l 257
 78 519 l 257
 78 -197 l 257
294 62 m 256
 243 62 202 85 167 123 c 257
 167 388 l 257
 197 425 242 455 298 455 c 256
 387 455 427 377 427 257 c 258
 427 249 l 257
 426 130 378 62 294 62 c 256
EndSplineSet
EndChar

StartChar: paragraph
Encoding: 182 182 383
Width: 613
VWidth: 0
GlyphClass: 2
Flags: W
LayerCount: 2
Fore
SplineSet
239 -193 m 257
 317 -193 l 257
 317 662 l 257
 412 662 l 257
 412 -193 l 257
 490 -193 l 257
 490 662 l 257
 584 662 l 257
 584 727 l 257
 263 727 l 258
 123 727 29 647 29 522 c 256
 29 480 38 444 56 413 c 256
 93 350 161 315 239 315 c 257
 239 -193 l 257
EndSplineSet
EndChar

StartChar: parenleft
Encoding: 40 40 384
Width: 389
VWidth: 0
GlyphClass: 2
Flags: W
LayerCount: 2
Fore
SplineSet
254 -193 m 257
 349 -193 l 257
 224 -71 154 89 154 274 c 256
 154 457 222 619 349 742 c 257
 254 742 l 257
 130 598 75 458 75 274 c 256
 75 94 130 -51 254 -193 c 257
EndSplineSet
EndChar

StartChar: parenright
Encoding: 41 41 385
Width: 389
VWidth: 0
GlyphClass: 2
Flags: W
LayerCount: 2
Fore
SplineSet
40 -193 m 257
 135 -193 l 257
 262 -44 314 95 314 274 c 256
 314 460 258 600 135 742 c 257
 40 742 l 257
 179 607 235 441 235 274 c 256
 235 92 167 -68 40 -193 c 257
EndSplineSet
EndChar

StartChar: partialdiff
Encoding: 8706 8706 386
Width: 612
VWidth: 0
GlyphClass: 2
Flags: W
LayerCount: 2
Fore
SplineSet
245 -11 m 256
 435 -11 562 214 562 473 c 256
 562 633 477 729 339 729 c 256
 279 729 225 710 197 691 c 257
 221 625 l 257
 251 644 286 654 324 654 c 256
 416 654 467 592 467 485 c 256
 467 462 465 442 463 423 c 257
 461 423 l 257
 441 460 393 496 319 496 c 256
 180 496 50 376 50 186 c 256
 50 80 119 -11 245 -11 c 256
248 65 m 256
 187 65 147 111 147 183 c 256
 147 292 212 426 334 426 c 256
 398 426 435 388 450 341 c 257
 419 176 340 65 248 65 c 256
EndSplineSet
EndChar

StartChar: percent
Encoding: 37 37 388
Width: 1020
VWidth: 0
GlyphClass: 2
Flags: W
LayerCount: 2
Fore
SplineSet
234 324 m 256
 166 324 142 362 142 474 c 256
 142 594 171 625 234 625 c 256
 298 625 327 594 327 474 c 256
 327 362 300 324 234 324 c 256
786 50 m 256
 721 50 693 92 693 201 c 256
 693 313 721 351 786 351 c 256
 854 351 879 313 879 201 c 256
 879 92 871 50 786 50 c 256
234 259 m 256
 359 259 414 339 414 474 c 256
 414 607 359 690 234 690 c 256
 115 690 55 618 55 474 c 256
 55 338 108 259 234 259 c 256
283 -25 m 257
 363 -25 l 257
 744 701 l 257
 663 701 l 257
 283 -25 l 257
786 -15 m 256
 905 -15 965 57 965 201 c 256
 965 337 912 416 786 416 c 256
 666 416 607 344 607 201 c 256
 607 56 666 -15 786 -15 c 256
EndSplineSet
EndChar

StartChar: period
Encoding: 46 46 389
Width: 269
VWidth: 0
GlyphClass: 2
Flags: W
LayerCount: 2
Fore
SplineSet
135 -7 m 256
 176 -7 195 7 195 48 c 256
 195 87 179 103 135 103 c 256
 92 103 76 87 76 48 c 256
 76 13 88 -7 135 -7 c 256
EndSplineSet
EndChar

StartChar: periodcentered
Encoding: 183 183 390
Width: 270
VWidth: 0
GlyphClass: 2
Flags: W
AnchorPoint: "mid" -60 365 mark 0
LayerCount: 2
Fore
SplineSet
135 309 m 256
 177 309 195 323 195 364 c 256
 195 403 179 419 135 419 c 256
 93 419 76 403 76 364 c 256
 76 329 89 309 135 309 c 256
EndSplineSet
EndChar

StartChar: perthousand
Encoding: 8240 8240 391
Width: 1449
VWidth: 0
GlyphClass: 2
Flags: W
LayerCount: 2
Fore
SplineSet
234 324 m 256
 166 324 142 362 142 474 c 256
 142 594 171 625 234 625 c 256
 298 625 327 594 327 474 c 256
 327 362 300 324 234 324 c 256
786 50 m 256
 721 50 693 92 693 201 c 256
 693 313 721 351 786 351 c 256
 854 351 879 313 879 201 c 256
 879 92 871 50 786 50 c 256
234 259 m 256
 359 259 414 339 414 474 c 256
 414 607 359 690 234 690 c 256
 115 690 55 618 55 474 c 256
 55 338 108 259 234 259 c 256
283 -25 m 257
 363 -25 l 257
 744 701 l 257
 663 701 l 257
 283 -25 l 257
786 -15 m 256
 905 -15 965 57 965 201 c 256
 965 337 912 416 786 416 c 256
 666 416 607 344 607 201 c 256
 607 56 666 -15 786 -15 c 256
1215 50 m 256
 1150 50 1122 92 1122 201 c 256
 1122 313 1150 351 1215 351 c 256
 1283 351 1308 313 1308 201 c 256
 1308 92 1300 50 1215 50 c 256
1215 -15 m 256
 1334 -15 1394 57 1394 201 c 256
 1394 337 1341 416 1215 416 c 256
 1095 416 1036 344 1036 201 c 256
 1036 56 1095 -15 1215 -15 c 256
EndSplineSet
EndChar

StartChar: pi
Encoding: 960 960 392
Width: 666
VWidth: 0
GlyphClass: 2
Flags: W
LayerCount: 2
Fore
SplineSet
537 -8 m 256
 568 -8 596 -4 622 3 c 257
 601 69 l 257
 586 63 568 60 549 60 c 256
 504 60 495 80 495 149 c 258
 495 444 l 257
 621 444 l 257
 621 512 l 257
 159 512 l 258
 89 512 34 496 5 481 c 257
 31 420 l 257
 64 436 123 444 150 444 c 257
 150 146 l 258
 150 95 142 46 126 0 c 257
 224 0 l 257
 234 33 236 77 236 140 c 258
 236 444 l 257
 410 444 l 257
 410 147 l 258
 410 106 415 75 423 53 c 256
 439 10 471 -8 537 -8 c 256
EndSplineSet
EndChar

StartChar: plus
Encoding: 43 43 393
Width: 645
VWidth: 0
GlyphClass: 2
Flags: W
LayerCount: 2
Fore
SplineSet
282 39 m 257
 362 39 l 257
 362 269 l 257
 581 269 l 257
 581 346 l 257
 362 346 l 257
 362 569 l 257
 282 569 l 257
 282 346 l 257
 63 346 l 257
 63 269 l 257
 282 269 l 257
 282 39 l 257
EndSplineSet
EndChar

StartChar: plusminus
Encoding: 177 177 394
Width: 696
VWidth: 0
GlyphClass: 2
Flags: W
LayerCount: 2
Fore
SplineSet
313 161 m 257
 383 161 l 257
 383 395 l 257
 617 395 l 257
 617 465 l 257
 383 465 l 257
 383 698 l 257
 313 698 l 257
 313 465 l 257
 80 465 l 257
 80 395 l 257
 313 395 l 257
 313 161 l 257
80 0 m 257
 617 0 l 257
 617 70 l 257
 80 70 l 257
 80 0 l 257
EndSplineSet
EndChar

StartChar: product
Encoding: 8719 8719 395
Width: 767
VWidth: 0
GlyphClass: 2
Flags: W
LayerCount: 2
Fore
SplineSet
87 -230 m 257
 185 -230 l 257
 185 615 l 257
 581 615 l 257
 581 -230 l 257
 680 -230 l 257
 680 700 l 257
 87 700 l 257
 87 -230 l 257
EndSplineSet
EndChar

StartChar: q
Encoding: 113 113 396
Width: 571
VWidth: 0
GlyphClass: 2
Flags: W
LayerCount: 2
Fore
SplineSet
401 -197 m 257
 490 -197 l 257
 490 519 l 257
 410 519 l 257
 404 469 l 257
 368 505 318 532 257 532 c 256
 125 532 55 419 53 259 c 257
 53 249 l 258
 53 87 123 -13 252 -13 c 256
 314 -13 365 13 401 50 c 257
 401 -197 l 257
271 62 m 256
 184 62 144 128 144 250 c 258
 144 258 l 257
 145 380 188 456 274 456 c 256
 325 456 370 431 401 398 c 257
 401 128 l 257
 363 86 322 62 271 62 c 256
EndSplineSet
EndChar

StartChar: question
Encoding: 63 63 397
Width: 512
VWidth: 0
GlyphClass: 2
Flags: W
LayerCount: 2
Fore
SplineSet
174 185 m 257
 259 185 l 257
 259 282 l 257
 318 314 359 340 383 361 c 256
 431 403 459 451 459 513 c 256
 459 626 372 690 237 690 c 256
 129 690 66 649 33 589 c 257
 107 541 l 257
 130 580 168 610 238 610 c 256
 320 610 364 570 364 503 c 256
 364 470 350 439 323 412 c 256
 296 384 247 354 174 319 c 257
 174 185 l 257
217 -7 m 256
 259 -7 277 7 277 48 c 256
 277 87 261 103 217 103 c 256
 175 103 158 87 158 48 c 256
 158 13 171 -7 217 -7 c 256
EndSplineSet
EndChar

StartChar: questiondown
Encoding: 191 191 398
Width: 512
VWidth: 0
GlyphClass: 2
Flags: W
LayerCount: 2
Fore
SplineSet
275 -193 m 256
 374 -193 442 -159 479 -92 c 257
 405 -44 l 257
 383 -83 345 -113 274 -113 c 256
 192 -113 148 -74 148 0 c 256
 148 50 167 85 215 124 c 256
 239 144 280 170 338 205 c 257
 338 338 l 257
 253 338 l 257
 253 242 l 257
 195 208 153 180 129 157 c 256
 80 112 53 59 53 -7 c 256
 53 -128 138 -193 275 -193 c 256
295 417 m 256
 338 417 354 433 354 472 c 256
 354 507 342 527 295 527 c 256
 254 527 235 513 235 472 c 256
 235 433 252 417 295 417 c 256
EndSplineSet
EndChar

StartChar: quotedbl
Encoding: 34 34 399
Width: 451
VWidth: 0
GlyphClass: 2
Flags: W
LayerCount: 2
Fore
SplineSet
105 407 m 257
 167 407 l 257
 187 676 l 257
 85 676 l 257
 105 407 l 257
284 407 m 257
 346 407 l 257
 366 676 l 257
 264 676 l 257
 284 407 l 257
EndSplineSet
EndChar

StartChar: quotedblbase
Encoding: 8222 8222 400
Width: 471
GlyphClass: 2
Flags: W
HStem: -7 110<89.9264 130 289.926 330>
VStem: 130 65<-81.3074 -7> 330 65<-80.9918 -7>
LayerCount: 2
Fore
SplineSet
395 38 m 0
 395 -2 389 -38.3333333333 377 -71 c 0
 365 -103.666666667 352.666666667 -127.666666667 340 -143 c 1
 289 -143 l 1
 299.666666667 -129 309.166666667 -108.333333333 317.5 -81 c 0
 325.833333333 -53.6666666667 330 -29 330 -7 c 1
 310.666666667 -7 296.833333333 -2.66666666667 288.5 6 c 0
 280.166666667 14.6666666667 276 28.6666666667 276 48 c 0
 276 66 280.5 79.6666666667 289.5 89 c 0
 298.5 98.3333333333 313.666666667 103 335 103 c 0
 357 103 372.5 97.5 381.5 86.5 c 0
 390.5 75.5 395 59.3333333333 395 38 c 0
195 38 m 0
 195 -2 189 -38.3333333333 177 -71 c 0
 165 -103.666666667 152.666666667 -127.666666667 140 -143 c 1
 89 -143 l 1
 100.333333333 -129 110 -108 118 -80 c 0
 126 -52 130 -27.6666666667 130 -7 c 1
 110.666666667 -7 96.8333333333 -2.66666666667 88.5 6 c 0
 80.1666666667 14.6666666667 76 28.6666666667 76 48 c 0
 76 66 80.5 79.6666666667 89.5 89 c 0
 98.5 98.3333333333 113.666666667 103 135 103 c 0
 157 103 172.5 97.5 181.5 86.5 c 0
 190.5 75.5 195 59.3333333333 195 38 c 0
EndSplineSet
EndChar

StartChar: quotedblleft
Encoding: 8220 8220 401
Width: 471
GlyphClass: 2
Flags: W
HStem: 430 110<141 181.074 341 381.074> 656 20G<123 182 323 382>
VStem: 76 65<540 614.377> 276 65<540 614.656>
LayerCount: 2
Fore
SplineSet
395 485 m 0
 395 467 390.5 453.333333333 381.5 444 c 0
 372.5 434.666666667 357.333333333 430 336 430 c 0
 314 430 298.5 435.5 289.5 446.5 c 0
 280.5 457.5 276 473.666666667 276 495 c 0
 276 527.666666667 281.166666667 561.333333333 291.5 596 c 0
 301.833333333 630.666666667 315 657.333333333 331 676 c 1
 382 676 l 1
 370.666666667 662 361 640.833333333 353 612.5 c 0
 345 584.166666667 341 560 341 540 c 1
 360.333333333 540 374.166666667 535.666666667 382.5 527 c 0
 390.833333333 518.333333333 395 504.333333333 395 485 c 0
195 485 m 0
 195 467 190.5 453.333333333 181.5 444 c 0
 172.5 434.666666667 157.333333333 430 136 430 c 0
 114 430 98.5 435.5 89.5 446.5 c 0
 80.5 457.5 76 473.666666667 76 495 c 0
 76 529.666666667 81.1666666667 563.5 91.5 596.5 c 0
 101.833333333 629.5 115 656 131 676 c 1
 182 676 l 1
 170.666666667 662 161 641.166666667 153 613.5 c 0
 145 585.833333333 141 561.333333333 141 540 c 1
 160.333333333 540 174.166666667 535.666666667 182.5 527 c 0
 190.833333333 518.333333333 195 504.333333333 195 485 c 0
EndSplineSet
EndChar

StartChar: quotedblright
Encoding: 8221 8221 402
Width: 471
GlyphClass: 2
Flags: W
HStem: 580 110<89.9264 130 289.926 330>
VStem: 130 65<505.693 580> 330 65<506.008 580>
LayerCount: 2
Fore
SplineSet
395 625 m 0
 395 585 389 548.666666667 377 516 c 0
 365 483.333333333 352.666666667 459.333333333 340 444 c 1
 289 444 l 1
 299.666666667 458 309.166666667 478.666666667 317.5 506 c 0
 325.833333333 533.333333333 330 558 330 580 c 1
 310.666666667 580 296.833333333 584.333333333 288.5 593 c 0
 280.166666667 601.666666667 276 615.666666667 276 635 c 0
 276 653 280.5 666.666666667 289.5 676 c 0
 298.5 685.333333333 313.666666667 690 335 690 c 0
 357 690 372.5 684.5 381.5 673.5 c 0
 390.5 662.5 395 646.333333333 395 625 c 0
195 625 m 0
 195 585 189 548.666666667 177 516 c 0
 165 483.333333333 152.666666667 459.333333333 140 444 c 1
 89 444 l 1
 100.333333333 458 110 479 118 507 c 0
 126 535 130 559.333333333 130 580 c 1
 110.666666667 580 96.8333333333 584.333333333 88.5 593 c 0
 80.1666666667 601.666666667 76 615.666666667 76 635 c 0
 76 653 80.5 666.666666667 89.5 676 c 0
 98.5 685.333333333 113.666666667 690 135 690 c 0
 157 690 172.5 684.5 181.5 673.5 c 0
 190.5 662.5 195 646.333333333 195 625 c 0
EndSplineSet
EndChar

StartChar: quoteleft
Encoding: 8216 8216 403
Width: 270
GlyphClass: 2
Flags: W
HStem: 430 246<116.443 140.887>
VStem: 76 65<540 614.377>
LayerCount: 2
Fore
SplineSet
195 485 m 0
 195 467 190.5 453.333333333 181.5 444 c 0
 172.5 434.666666667 157.333333333 430 136 430 c 0
 114 430 98.5 435.5 89.5 446.5 c 0
 80.5 457.5 76 473.666666667 76 495 c 0
 76 529.666666667 81.1666666667 563.5 91.5 596.5 c 0
 101.833333333 629.5 115 656 131 676 c 1
 182 676 l 1
 170.666666667 662 161 641.166666667 153 613.5 c 0
 145 585.833333333 141 561.333333333 141 540 c 1
 160.333333333 540 174.166666667 535.666666667 182.5 527 c 0
 190.833333333 518.333333333 195 504.333333333 195 485 c 0
EndSplineSet
EndChar

StartChar: quoteright
Encoding: 8217 8217 404
Width: 270
GlyphClass: 2
Flags: W
HStem: 444 246<130.113 154.557>
VStem: 130 65<505.693 580>
LayerCount: 2
Fore
SplineSet
195 625 m 0
 195 585 189 548.666666667 177 516 c 0
 165 483.333333333 152.666666667 459.333333333 140 444 c 1
 89 444 l 1
 100.333333333 458 110 479 118 507 c 0
 126 535 130 559.333333333 130 580 c 1
 110.666666667 580 96.8333333333 584.333333333 88.5 593 c 0
 80.1666666667 601.666666667 76 615.666666667 76 635 c 0
 76 653 80.5 666.666666667 89.5 676 c 0
 98.5 685.333333333 113.666666667 690 135 690 c 0
 157 690 172.5 684.5 181.5 673.5 c 0
 190.5 662.5 195 646.333333333 195 625 c 0
EndSplineSet
EndChar

StartChar: quotesinglbase
Encoding: 8218 8218 405
Width: 270
GlyphClass: 2
Flags: W
HStem: -143 246<130.113 154.557>
VStem: 130 65<-81.3074 -7>
LayerCount: 2
Fore
SplineSet
195 38 m 0
 195 -2 189 -38.3333333333 177 -71 c 0
 165 -103.666666667 152.666666667 -127.666666667 140 -143 c 1
 89 -143 l 1
 100.333333333 -129 110 -108 118 -80 c 0
 126 -52 130 -27.6666666667 130 -7 c 1
 110.666666667 -7 96.8333333333 -2.66666666667 88.5 6 c 0
 80.1666666667 14.6666666667 76 28.6666666667 76 48 c 0
 76 66 80.5 79.6666666667 89.5 89 c 0
 98.5 98.3333333333 113.666666667 103 135 103 c 0
 157 103 172.5 97.5 181.5 86.5 c 0
 190.5 75.5 195 59.3333333333 195 38 c 0
EndSplineSet
EndChar

StartChar: quotesingle
Encoding: 39 39 406
Width: 271
VWidth: 0
GlyphClass: 2
Flags: W
LayerCount: 2
Fore
SplineSet
105 407 m 257
 167 407 l 257
 187 676 l 257
 85 676 l 257
 105 407 l 257
EndSplineSet
EndChar

StartChar: r
Encoding: 114 114 407
Width: 374
VWidth: 0
GlyphClass: 2
Flags: W
AnchorPoint: "bot" 125 0 basechar 0
AnchorPoint: "top" 258 519 basechar 0
LayerCount: 2
Fore
SplineSet
78 0 m 257
 167 0 l 257
 167 364 l 257
 211 417 249 440 301 440 c 256
 311 440 338 437 344 435 c 257
 360 519 l 257
 349 524 333 528 315 528 c 256
 251 528 204 485 166 438 c 257
 163 519 l 257
 78 519 l 257
 78 0 l 257
EndSplineSet
EndChar

StartChar: radical
Encoding: 8730 8730 409
Width: 562
VWidth: 0
GlyphClass: 2
Flags: W
LayerCount: 2
Fore
SplineSet
254 -12 m 257
 330 -12 l 257
 539 729 l 257
 468 729 l 257
 291 96 l 257
 152 416 l 257
 23 335 l 257
 53 283 l 257
 110 319 l 257
 254 -12 l 257
EndSplineSet
EndChar

StartChar: registered
Encoding: 174 174 413
Width: 905
VWidth: 0
GlyphClass: 2
Flags: W
LayerCount: 2
Fore
SplineSet
314 98 m 257
 382 98 l 257
 382 262 l 257
 446 262 l 257
 552 98 l 257
 632 98 l 257
 518 272 l 257
 569 287 601 321 601 393 c 256
 601 485 546 513 448 513 c 258
 314 513 l 257
 314 98 l 257
453 -33 m 256
 394 -33 339 -18 288 12 c 256
 186 72 125 179 125 298 c 256
 125 357 140 412 169 463 c 256
 228 565 335 628 453 628 c 256
 511 628 566 613 617 584 c 256
 718 525 781 417 781 298 c 256
 781 238 766 183 737 132 c 256
 678 30 570 -33 453 -33 c 256
453 -96 m 256
 524 -96 590 -79 651 -44 c 256
 772 25 845 154 845 298 c 256
 845 368 828 434 793 495 c 256
 724 617 597 690 453 690 c 256
 382 690 316 673 255 638 c 256
 133 569 60 442 60 298 c 256
 60 227 77 161 112 100 c 256
 182 -22 310 -96 453 -96 c 256
382 321 m 257
 382 455 l 257
 448 455 l 258
 509 455 530 437 530 390 c 256
 530 339 512 321 445 321 c 258
 382 321 l 257
EndSplineSet
EndChar

StartChar: ring
Encoding: 730 730 414
Width: 600
VWidth: 0
GlyphClass: 2
Flags: W
AnchorPoint: "top" 264 519 mark 0
AnchorPoint: "top" 260 728 basechar 0
LayerCount: 2
Fore
SplineSet
264 612 m 256
 232 612 217 628 217 661 c 256
 217 694 232 710 264 710 c 256
 296 710 312 694 312 661 c 256
 312 628 296 612 264 612 c 256
264 565 m 256
 331 565 361 603 361 661 c 256
 361 720 332 757 264 757 c 256
 197 757 168 718 168 661 c 256
 168 605 196 565 264 565 c 256
EndSplineSet
EndChar

StartChar: ring.cap
Encoding: 65549 -1 415
Width: 600
VWidth: 0
GlyphClass: 2
Flags: W
AnchorPoint: "top" 263 690 mark 0
AnchorPoint: "top" 264 876 basechar 0
LayerCount: 2
Fore
SplineSet
264 755 m 256
 230 755 214 772 214 807 c 256
 214 841 230 859 264 859 c 256
 298 859 315 841 315 807 c 256
 315 772 298 755 264 755 c 256
264 715 m 256
 328 715 357 751 357 807 c 256
 357 863 328 899 264 899 c 256
 200 899 172 863 172 807 c 256
 172 754 198 715 264 715 c 256
EndSplineSet
EndChar

StartChar: s
Encoding: 115 115 417
Width: 499
VWidth: 0
GlyphClass: 2
Flags: W
AnchorPoint: "bot" 253 0 basechar 0
AnchorPoint: "top" 261 519 basechar 0
LayerCount: 2
Fore
SplineSet
250 -13 m 256
 369 -13 449 43 449 142 c 256
 449 243 379 273 259 302 c 256
 180 320 152 337 152 382 c 256
 152 434 195 459 252 459 c 256
 304 459 347 432 363 387 c 257
 440 411 l 257
 439 414 438 418 436 422 c 256
 418 483 350 532 253 532 c 256
 137 532 64 468 64 379 c 256
 64 297 117 251 241 223 c 257
 318 204 362 187 362 137 c 256
 362 87 319 60 251 60 c 256
 191 60 145 84 128 136 c 257
 51 112 l 257
 52 108 53 105 55 101 c 256
 76 35 150 -13 250 -13 c 256
EndSplineSet
EndChar

StartChar: section
Encoding: 167 167 425
Width: 527
VWidth: 0
GlyphClass: 2
Flags: W
LayerCount: 2
Fore
SplineSet
254 -179 m 256
 370 -179 447 -131 447 -33 c 256
 447 9 422 47 357 90 c 257
 437 139 475 178 475 244 c 256
 475 289 453 329 404 369 c 256
 380 389 339 414 283 445 c 256
 245 466 217 485 199 499 c 256
 181 513 172 530 172 549 c 256
 172 596 208 620 279 620 c 256
 333 620 374 604 402 571 c 257
 464 618 l 257
 427 666 365 690 277 690 c 256
 148 690 84 633 84 545 c 256
 84 498 112 463 172 421 c 257
 103 380 53 334 53 266 c 256
 53 240 60 216 73 196 c 256
 99 155 134 126 239 69 c 256
 286 45 317 25 334 11 c 256
 350 -4 359 -20 359 -37 c 256
 359 -86 327 -110 252 -110 c 256
 201 -110 160 -93 129 -60 c 257
 67 -107 l 257
 106 -155 169 -179 254 -179 c 256
294 128 m 257
 245 155 l 258
 177 192 135 233 135 269 c 256
 135 312 177 347 236 383 c 257
 283 357 316 336 335 322 c 256
 373 294 393 267 393 240 c 256
 393 192 353 167 294 128 c 257
EndSplineSet
EndChar

StartChar: semicolon
Encoding: 59 59 426
Width: 270
VWidth: 0
GlyphClass: 2
Flags: W
LayerCount: 2
Fore
SplineSet
89 -143 m 257
 140 -143 l 257
 165 -112 195 -42 195 38 c 256
 195 80 179 103 135 103 c 256
 93 103 76 85 76 48 c 256
 76 9 91 -7 130 -7 c 257
 130 -52 112 -113 89 -143 c 257
135 402 m 256
 177 402 195 415 195 457 c 256
 195 496 179 512 135 512 c 256
 93 512 76 496 76 457 c 256
 76 422 89 402 135 402 c 256
EndSplineSet
EndChar

StartChar: seven
Encoding: 55 55 427
Width: 617
VWidth: 0
GlyphClass: 2
Flags: W
LayerCount: 2
Fore
SplineSet
182 0 m 257
 282 0 l 257
 540 592 l 257
 540 676 l 257
 68 676 l 257
 68 594 l 257
 449 594 l 257
 182 0 l 257
EndSplineSet
EndChar

StartChar: six
Encoding: 54 54 428
Width: 573
VWidth: 0
GlyphClass: 2
Flags: W
LayerCount: 2
Fore
SplineSet
300 -13 m 256
 442 -13 527 80 527 227 c 256
 527 366 447 449 320 449 c 256
 253 449 196 423 159 394 c 257
 166 538 223 626 327 626 c 256
 376 626 408 610 444 581 c 257
 486 652 l 257
 446 684 392 703 327 703 c 256
 168 703 63 575 62 365 c 257
 62 307 l 258
 62 100 146 -13 300 -13 c 256
302 64 m 256
 211 64 159 137 158 290 c 257
 158 318 l 257
 188 348 241 373 298 373 c 256
 388 373 434 316 434 225 c 256
 434 130 390 64 302 64 c 256
EndSplineSet
EndChar

StartChar: slash
Encoding: 47 47 429
Width: 456
VWidth: 0
GlyphClass: 2
Flags: W
LayerCount: 2
Fore
SplineSet
19 -68 m 257
 87 -68 l 257
 416 774 l 257
 348 774 l 257
 19 -68 l 257
EndSplineSet
EndChar

StartChar: uni00AD
Encoding: 173 173 430
Width: 403
VWidth: 0
Flags: W
LayerCount: 2
Fore
SplineSet
50 215 m 257
 354 215 l 257
 354 299 l 257
 50 299 l 257
 50 215 l 257
EndSplineSet
EndChar

StartChar: sterling
Encoding: 163 163 432
Width: 617
VWidth: 0
GlyphClass: 2
Flags: W
LayerCount: 2
Fore
SplineSet
55 0 m 257
 566 0 l 257
 566 76 l 257
 157 76 l 257
 208 111 236 173 236 287 c 257
 418 287 l 257
 418 351 l 257
 232 351 l 257
 232 358 227 378 219 412 c 256
 211 443 207 471 207 496 c 256
 207 572 255 616 343 616 c 256
 406 616 455 586 484 539 c 257
 559 583 l 257
 515 654 443 690 343 690 c 256
 203 690 114 623 114 510 c 256
 114 472 121 427 135 375 c 257
 140 351 l 257
 67 351 l 257
 67 287 l 257
 143 287 l 257
 143 239 140 202 135 177 c 256
 123 126 100 85 55 76 c 257
 55 0 l 257
EndSplineSet
EndChar

StartChar: summation
Encoding: 8721 8721 433
Width: 669
VWidth: 0
GlyphClass: 2
Flags: W
LayerCount: 2
Fore
SplineSet
30 -230 m 257
 639 -230 l 257
 639 -150 l 257
 164 -150 l 257
 476 241 l 257
 182 620 l 257
 615 620 l 257
 615 700 l 257
 52 700 l 257
 52 645 l 257
 368 239 l 257
 30 -181 l 257
 30 -230 l 257
EndSplineSet
EndChar

StartChar: t
Encoding: 116 116 434
Width: 351
VWidth: 0
GlyphClass: 2
Flags: W
AnchorPoint: "mid" 155 302 basechar 0
AnchorPoint: "bot" 225 0 basechar 0
AnchorPoint: "top" 139 655 basechar 0
LayerCount: 2
Fore
SplineSet
237 -13 m 256
 267 -13 299 -7 324 4 c 257
 306 72 l 257
 290 65 270 61 250 61 c 256
 200 61 187 90 187 157 c 258
 187 448 l 257
 305 448 l 257
 305 519 l 257
 187 519 l 257
 187 655 l 257
 98 655 l 257
 98 519 l 257
 20 519 l 257
 20 448 l 257
 98 448 l 257
 98 147 l 258
 98 40 140 -13 237 -13 c 256
EndSplineSet
EndChar

StartChar: thorn
Encoding: 254 254 438
Width: 571
VWidth: 0
GlyphClass: 2
Flags: W
AnchorPoint: "top" 330 519 basechar 0
LayerCount: 2
Fore
SplineSet
78 -197 m 257
 167 -197 l 257
 167 47 l 257
 207 8 253 -13 312 -13 c 256
 442 -13 516 94 518 248 c 257
 518 258 l 258
 518 422 450 532 319 532 c 256
 252 532 203 502 167 461 c 257
 167 690 l 257
 78 690 l 257
 78 -197 l 257
294 62 m 256
 243 62 202 85 167 123 c 257
 167 388 l 257
 197 425 242 455 298 455 c 256
 387 455 427 377 427 257 c 258
 427 249 l 257
 426 130 378 62 294 62 c 256
EndSplineSet
EndChar

StartChar: three
Encoding: 51 51 439
Width: 573
VWidth: 0
GlyphClass: 2
Flags: W
LayerCount: 2
Fore
SplineSet
264 -13 m 256
 408 -13 499 60 499 195 c 256
 499 295 445 351 364 364 c 257
 442 388 488 440 488 524 c 256
 488 635 407 703 276 703 c 256
 166 703 84 651 59 571 c 256
 58 567 57 564 56 561 c 257
 138 532 l 257
 157 591 205 625 272 625 c 256
 347 625 392 589 392 517 c 256
 392 441 344 399 255 399 c 258
 196 399 l 257
 196 322 l 257
 260 322 l 258
 357 322 404 282 404 198 c 256
 404 109 357 65 263 65 c 256
 195 65 146 102 132 155 c 257
 50 126 l 257
 53 117 l 258
 76 36 163 -13 264 -13 c 256
EndSplineSet
EndChar

StartChar: threequarters
Encoding: 190 190 440
Width: 950
VWidth: 0
GlyphClass: 2
Flags: W
LayerCount: 2
Fore
SplineSet
203 255 m 256
 311 255 374 300 374 386 c 256
 374 437 342 473 299 489 c 257
 344 506 367 538 367 583 c 256
 367 640 321 688 217 688 c 256
 191 688 168 685 147 680 c 256
 106 668 82 652 56 615 c 257
 121 578 l 257
 144 610 174 626 212 626 c 256
 254 626 283 610 283 575 c 256
 283 536 248 515 192 515 c 258
 154 515 l 257
 154 453 l 257
 198 453 l 258
 258 453 290 434 290 389 c 256
 290 342 263 318 202 318 c 256
 165 318 134 337 116 360 c 257
 51 324 l 257
 78 283 137 255 203 255 c 256
770 -5 m 257
 848 -5 l 257
 848 84 l 257
 910 84 l 257
 910 145 l 257
 848 145 l 257
 848 410 l 257
 779 410 l 257
 537 145 l 257
 537 84 l 257
 770 84 l 257
 770 -5 l 257
286 -25 m 257
 366 -25 l 257
 747 701 l 257
 666 701 l 257
 286 -25 l 257
624 145 m 257
 770 304 l 257
 770 145 l 257
 624 145 l 257
EndSplineSet
EndChar

StartChar: uni00B3
Encoding: 179 179 441
Width: 434
VWidth: 0
Flags: W
LayerCount: 2
Fore
SplineSet
193 311 m 256
 301 311 364 356 364 442 c 256
 364 493 332 529 289 545 c 257
 334 562 357 594 357 639 c 256
 357 696 311 744 207 744 c 256
 181 744 159 741 138 736 c 256
 97 724 72 708 46 671 c 257
 111 634 l 257
 134 666 164 682 202 682 c 256
 244 682 273 666 273 631 c 256
 273 592 238 571 182 571 c 258
 144 571 l 257
 144 509 l 257
 188 509 l 258
 248 509 280 490 280 445 c 256
 280 398 253 374 192 374 c 256
 155 374 124 393 106 416 c 257
 41 380 l 257
 68 339 127 311 193 311 c 256
EndSplineSet
EndChar

StartChar: tilde
Encoding: 732 732 442
Width: 600
VWidth: 0
GlyphClass: 2
Flags: W
AnchorPoint: "top" 283 519 mark 0
LayerCount: 2
Fore
SplineSet
335 590 m 256
 404 590 442 632 448 718 c 257
 389 718 l 257
 386 676 371 655 342 655 c 256
 318 655 300 672 277 689 c 256
 254 707 229 724 193 724 c 256
 128 724 85 678 81 596 c 257
 140 596 l 257
 143 636 154 661 187 661 c 256
 214 661 229 644 249 625 c 256
 269 607 292 590 335 590 c 256
EndSplineSet
EndChar

StartChar: tilde.cap
Encoding: 65550 -1 443
Width: 600
VWidth: 0
GlyphClass: 2
Flags: W
AnchorPoint: "top" 271 690 mark 0
LayerCount: 2
Fore
SplineSet
335 754 m 256
 404 754 442 796 448 882 c 257
 389 882 l 257
 386 840 371 819 342 819 c 256
 318 819 300 836 277 854 c 256
 254 871 229 888 193 888 c 256
 128 888 85 841 81 760 c 257
 140 760 l 257
 143 800 154 825 187 825 c 256
 214 825 229 808 249 790 c 256
 269 771 292 754 335 754 c 256
EndSplineSet
EndChar

StartChar: tildecomb
Encoding: 771 771 444
Width: 600
VWidth: 0
GlyphClass: 2
Flags: W
LayerCount: 2
Fore
SplineSet
70 590 m 256
 142 590 178 638 183 718 c 257
 124 718 l 257
 121 676 105 655 77 655 c 256
 53 655 35 672 12 689 c 256
 -10 707 -36 724 -72 724 c 256
 -138 724 -180 678 -184 596 c 257
 -125 596 l 257
 -123 636 -111 661 -78 661 c 256
 -51 661 -36 644 -16 625 c 256
 4 607 27 590 70 590 c 256
EndSplineSet
EndChar

StartChar: trademark
Encoding: 8482 8482 445
Width: 774
VWidth: 0
GlyphClass: 2
Flags: W
LayerCount: 2
Fore
SplineSet
399 327 m 257
 466 327 l 257
 466 562 l 257
 542 416 l 257
 585 416 l 257
 663 563 l 257
 663 327 l 257
 730 327 l 257
 730 676 l 257
 652 676 l 257
 564 508 l 257
 479 676 l 257
 399 676 l 257
 399 327 l 257
145 327 m 257
 214 327 l 257
 214 614 l 257
 321 614 l 257
 321 676 l 257
 37 676 l 257
 37 614 l 257
 145 614 l 257
 145 327 l 257
EndSplineSet
EndChar

StartChar: two
Encoding: 50 50 446
Width: 573
VWidth: 0
GlyphClass: 2
Flags: W
LayerCount: 2
Fore
SplineSet
64 0 m 257
 520 0 l 257
 520 79 l 257
 173 79 l 257
 236 133 352 253 370 271 c 256
 405 307 432 340 452 370 c 256
 483 414 497 460 497 512 c 256
 497 631 412 703 285 703 c 256
 168 703 89 647 61 555 c 256
 60 552 60 549 59 546 c 257
 141 517 l 257
 159 584 203 624 283 624 c 256
 355 624 401 575 401 507 c 256
 401 478 395 450 381 424 c 256
 360 383 321 338 261 279 c 256
 240 258 112 125 64 84 c 257
 64 0 l 257
EndSplineSet
EndChar

StartChar: uni00B2
Encoding: 178 178 447
Width: 434
VWidth: 0
Flags: W
LayerCount: 2
Fore
SplineSet
56 320 m 257
 378 320 l 257
 378 384 l 257
 158 384 l 257
 215 428 258 462 285 486 c 256
 340 535 364 570 364 625 c 256
 364 701 307 744 211 744 c 256
 139 744 87 718 52 665 c 257
 117 627 l 257
 143 663 174 681 209 681 c 256
 248 681 281 662 281 623 c 257
 282 600 273 577 253 554 c 256
 213 508 104 421 56 387 c 257
 56 320 l 257
EndSplineSet
EndChar

StartChar: u
Encoding: 117 117 448
Width: 568
VWidth: 0
GlyphClass: 2
Flags: W
AnchorPoint: "ogonek" 448 0 basechar 0
AnchorPoint: "top" 298 519 basechar 0
LayerCount: 2
Fore
SplineSet
234 -13 m 256
 300 -13 360 25 403 77 c 257
 405 0 l 257
 490 0 l 257
 490 519 l 257
 401 519 l 257
 401 149 l 257
 360 101 307 67 253 67 c 256
 181 67 164 100 164 212 c 258
 164 519 l 257
 75 519 l 257
 75 189 l 258
 75 51 121 -13 234 -13 c 256
EndSplineSet
EndChar

StartChar: underscore
Encoding: 95 95 459
Width: 481
VWidth: 0
GlyphClass: 2
Flags: W
LayerCount: 2
Fore
SplineSet
-2 -105 m 257
 484 -105 l 257
 484 -45 l 257
 -2 -45 l 257
 -2 -105 l 257
EndSplineSet
EndChar

StartChar: uni0302
Encoding: 770 770 473
Width: 600
VWidth: 0
GlyphClass: 2
Flags: W
LayerCount: 2
Fore
SplineSet
-163 590 m 257
 -90 590 l 257
 0 706 l 257
 90 590 l 257
 163 590 l 257
 52 766 l 257
 -51 766 l 257
 -163 590 l 257
EndSplineSet
EndChar

StartChar: uni0304
Encoding: 772 772 474
Width: 600
VWidth: 0
GlyphClass: 2
Flags: W
LayerCount: 2
Fore
SplineSet
-149 613 m 257
 149 613 l 257
 149 681 l 257
 -149 681 l 257
 -149 613 l 257
EndSplineSet
EndChar

StartChar: uni0306
Encoding: 774 774 475
Width: 600
VWidth: 0
GlyphClass: 2
Flags: W
LayerCount: 2
Fore
SplineSet
-1 589 m 256
 100 589 160 646 160 727 c 257
 98 727 l 257
 90 686 64 666 -2 666 c 256
 -57 666 -89 687 -98 727 c 257
 -160 727 l 257
 -160 648 -100 589 -1 589 c 256
EndSplineSet
EndChar

StartChar: uni0307
Encoding: 775 775 476
Width: 600
VWidth: 0
GlyphClass: 2
Flags: W
LayerCount: 2
Fore
SplineSet
0 590 m 256
 41 590 57 605 57 646 c 256
 57 685 43 702 0 702 c 256
 -43 702 -56 685 -56 646 c 256
 -56 611 -45 590 0 590 c 256
EndSplineSet
EndChar

StartChar: uni0308
Encoding: 776 776 477
Width: 600
VWidth: 0
GlyphClass: 2
Flags: W
LayerCount: 2
Fore
SplineSet
-97 590 m 256
 -58 590 -44 603 -44 642 c 256
 -44 678 -57 694 -97 694 c 256
 -136 694 -149 677 -149 642 c 256
 -149 610 -138 590 -97 590 c 256
96 590 m 256
 135 590 149 603 149 642 c 256
 149 678 136 694 96 694 c 256
 57 694 44 677 44 642 c 256
 44 610 55 590 96 590 c 256
EndSplineSet
EndChar

StartChar: uni030A
Encoding: 778 778 478
Width: 600
VWidth: 0
GlyphClass: 2
Flags: W
LayerCount: 2
Fore
SplineSet
-1 605 m 256
 -34 605 -51 623 -51 657 c 256
 -51 692 -34 709 -1 709 c 256
 33 709 50 692 50 657 c 256
 50 623 33 605 -1 605 c 256
-1 565 m 256
 63 565 92 601 92 657 c 256
 92 713 63 749 -1 749 c 256
 -65 749 -93 713 -93 657 c 256
 -93 604 -66 565 -1 565 c 256
EndSplineSet
EndChar

StartChar: uni030C
Encoding: 780 780 479
Width: 600
VWidth: 0
GlyphClass: 2
Flags: W
LayerCount: 2
Fore
SplineSet
-52 590 m 257
 51 590 l 257
 163 766 l 257
 90 766 l 257
 0 650 l 257
 -90 766 l 257
 -163 766 l 257
 -52 590 l 257
EndSplineSet
EndChar

StartChar: uni030F
Encoding: 783 783 480
Width: 270
VWidth: 0
GlyphClass: 2
Flags: W
AnchorPoint: "top" 1 519 mark 0
LayerCount: 2
Fore
SplineSet
-92 766 m 257
 41 590 l 257
 110 590 l 257
 23 766 l 257
 -92 766 l 257
-262 766 m 257
 -129 590 l 257
 -60 590 l 257
 -147 766 l 257
 -262 766 l 257
EndSplineSet
EndChar

StartChar: uni0311
Encoding: 785 785 481
Width: 270
VWidth: 0
GlyphClass: 2
Flags: W
AnchorPoint: "top" -1 519 mark 0
LayerCount: 2
Fore
SplineSet
-160 589 m 257
 -98 589 l 257
 -89 629 -57 650 -2 650 c 256
 64 650 90 630 98 589 c 257
 160 589 l 257
 160 670 100 727 -1 727 c 256
 -100 727 -160 668 -160 589 c 257
EndSplineSet
EndChar

StartChar: uni0312
Encoding: 786 786 482
Width: 270
VWidth: 0
GlyphClass: 2
Flags: W
AnchorPoint: "top" 138 519 mark 0
LayerCount: 2
Fore
SplineSet
182 847 m 257
 131 847 l 257
 105 816 76 746 76 666 c 256
 76 623 93 601 136 601 c 256
 179 601 195 620 195 656 c 256
 195 695 180 711 141 711 c 257
 141 759 158 817 182 847 c 257
EndSplineSet
EndChar

StartChar: uni0326
Encoding: 806 806 483
Width: 600
VWidth: 0
GlyphClass: 2
Flags: W
AnchorPoint: "bot" 135 0 mark 0
LayerCount: 2
Fore
SplineSet
91 -259 m 257
 142 -259 l 257
 166 -229 195 -193 195 -134 c 256
 195 -91 177 -70 134 -70 c 256
 91 -70 76 -90 76 -126 c 256
 76 -165 92 -180 131 -180 c 257
 131 -207 110 -234 91 -259 c 257
EndSplineSet
EndChar

StartChar: uni0326.alt
Encoding: 65551 -1 484
Width: 600
VWidth: 0
GlyphClass: 2
Flags: W
LayerCount: 2
Fore
SplineSet
137 569 m 256
 180 569 195 589 195 625 c 256
 195 664 179 679 140 679 c 257
 140 706 161 732 180 758 c 257
 129 758 l 257
 88 708 76 673 76 633 c 256
 76 590 94 569 137 569 c 256
EndSplineSet
EndChar

StartChar: uni2113
Encoding: 8467 8467 487
Width: 521
VWidth: 0
Flags: W
LayerCount: 2
Fore
SplineSet
301 -14 m 256
 352 -14 405 12 444 53 c 257
 412 105 l 257
 392 83 361 57 324 57 c 256
 287 57 259 82 259 150 c 258
 259 312 l 257
 380 460 412 530 412 616 c 256
 412 673 378 728 306 728 c 256
 221 728 170 662 170 539 c 258
 170 320 l 257
 76 224 l 257
 110 178 l 257
 170 239 l 257
 170 144 l 258
 170 43 217 -14 301 -14 c 256
259 400 m 257
 259 550 l 258
 259 622 276 657 312 657 c 256
 337 657 349 634 349 603 c 256
 349 543 313 462 259 400 c 257
EndSplineSet
EndChar

StartChar: v
Encoding: 118 118 491
Width: 496
VWidth: 0
GlyphClass: 2
Flags: W
LayerCount: 2
Fore
SplineSet
210 0 m 257
 289 0 l 257
 475 519 l 257
 383 519 l 257
 268 165 l 257
 253 116 l 257
 250 116 l 257
 235 165 l 257
 118 519 l 257
 24 519 l 257
 210 0 l 257
EndSplineSet
EndChar

StartChar: w
Encoding: 119 119 492
Width: 735
VWidth: 0
GlyphClass: 2
Flags: W
AnchorPoint: "top" 370 519 basechar 0
LayerCount: 2
Fore
SplineSet
165 0 m 257
 242 0 l 257
 343 320 l 257
 366 400 l 257
 367 400 l 257
 390 320 l 257
 492 0 l 257
 570 0 l 257
 707 519 l 257
 618 519 l 257
 607 474 556 243 546 197 c 256
 544 188 532 132 530 122 c 257
 528 122 l 257
 507 196 l 257
 405 519 l 257
 332 519 l 257
 231 196 l 257
 211 125 l 257
 209 125 l 257
 195 197 l 257
 118 519 l 257
 27 519 l 257
 165 0 l 257
EndSplineSet
EndChar

StartChar: x
Encoding: 120 120 497
Width: 497
VWidth: 0
GlyphClass: 2
Flags: W
LayerCount: 2
Fore
SplineSet
25 0 m 257
 127 0 l 257
 247 197 l 257
 365 0 l 257
 472 0 l 257
 299 262 l 257
 470 519 l 257
 367 519 l 257
 250 324 l 257
 134 519 l 257
 28 519 l 257
 198 259 l 257
 25 0 l 257
EndSplineSet
EndChar

StartChar: y
Encoding: 121 121 498
Width: 506
VWidth: 0
GlyphClass: 2
Flags: W
AnchorPoint: "top" 264 519 basechar 0
LayerCount: 2
Fore
SplineSet
97 -201 m 256
 182 -201 227 -152 266 -56 c 258
 486 519 l 257
 391 519 l 257
 254 134 l 257
 252 134 l 257
 225 216 l 257
 116 519 l 257
 19 519 l 257
 210 21 l 257
 190 -27 l 258
 167 -88 137 -127 97 -127 c 256
 80 -127 48 -123 35 -117 c 257
 19 -189 l 257
 36 -195 73 -201 97 -201 c 256
EndSplineSet
EndChar

StartChar: yen
Encoding: 165 165 502
Width: 617
VWidth: 0
GlyphClass: 2
Flags: W
LayerCount: 2
Fore
SplineSet
263 0 m 257
 353 0 l 257
 353 180 l 257
 550 180 l 257
 550 239 l 257
 353 239 l 257
 353 290 l 257
 367 312 l 257
 550 312 l 257
 550 371 l 257
 402 371 l 257
 585 676 l 257
 488 676 l 257
 310 371 l 257
 134 676 l 257
 32 676 l 257
 213 371 l 257
 67 371 l 257
 67 312 l 257
 247 312 l 257
 263 286 l 257
 263 239 l 257
 67 239 l 257
 67 180 l 257
 263 180 l 257
 263 0 l 257
EndSplineSet
EndChar

StartChar: z
Encoding: 122 122 506
Width: 474
VWidth: 0
GlyphClass: 2
Flags: W
AnchorPoint: "top" 260 519 basechar 0
LayerCount: 2
Fore
SplineSet
42 0 m 257
 436 0 l 257
 436 73 l 257
 148 73 l 257
 425 456 l 257
 425 519 l 257
 47 519 l 257
 47 446 l 257
 317 446 l 257
 42 65 l 257
 42 0 l 257
EndSplineSet
EndChar

StartChar: zero
Encoding: 48 48 510
Width: 595
VWidth: 0
GlyphClass: 2
Flags: W
LayerCount: 2
Fore
SplineSet
298 64 m 256
 198 64 155 145 154 297 c 257
 154 386 l 258
 154 541 197 624 298 624 c 256
 400 624 441 541 441 386 c 258
 441 298 l 257
 440 145 399 64 298 64 c 256
298 -13 m 256
 460 -13 536 99 537 306 c 257
 537 378 l 258
 537 588 462 701 298 701 c 256
 135 701 59 588 59 378 c 258
 59 304 l 257
 60 97 136 -13 298 -13 c 256
EndSplineSet
EndChar

